<?xml version="1.0" encoding="utf-8"?>
<!-- Generator: Adobe Illustrator 21.0.0, SVG Export Plug-In . SVG Version: 6.00 Build 0)  -->
<svg version="1.1" id="Capa_1" xmlns="http://www.w3.org/2000/svg" xmlns:xlink="http://www.w3.org/1999/xlink" x="0px" y="0px"
	 viewBox="0 0 253.8 265.1" style="enable-background:new 0 0 253.8 265.1;" xml:space="preserve">
<style type="text/css">
	.st0{fill:#FFFFFF;}
</style>
<g>
	<g>
		<path d="M197.9,171.9c-19,19-44.3,29.5-71.2,29.5s-52.2-10.5-71.2-29.5S26,127.6,26,100.7s10.5-52.2,29.5-71.2S99.8,0,126.7,0
			s52.2,10.5,71.2,29.5s29.5,44.3,29.5,71.2C227.4,127.6,216.9,152.9,197.9,171.9L197.9,171.9z"/>
		<path class="st0" d="M199.7,41.6c-1.2-1.4-3.3-1.7-4.7-0.5c-1.4,1.2-1.7,3.3-0.5,4.7c12.5,15.5,19.5,35,19.5,54.9
			c0,23.3-9.1,45.2-25.5,61.7c-16.5,16.5-38.4,25.5-61.7,25.5c-21.5,0-42.2-7.9-58.2-22.2c-1.4-1.2-3.5-1.1-4.7,0.3
			s-1.1,3.5,0.3,4.7c17.2,15.4,39.5,23.9,62.6,23.9c25.1,0,48.7-9.8,66.4-27.5c17.7-17.7,27.5-41.3,27.5-66.4
			C220.7,79.2,213.3,58.2,199.7,41.6L199.7,41.6z"/>
		<path class="st0" d="M39.5,100.7c0-48.1,39.1-87.2,87.2-87.2c21.5,0,42.2,7.9,58.2,22.2c1.4,1.2,3.5,1.1,4.7-0.3
			c1.2-1.4,1.1-3.5-0.3-4.7c-17.2-15.4-39.4-23.9-62.5-23.9c-25.1,0-48.7,9.8-66.4,27.5s-27.5,41.3-27.5,66.4
			c0,21.5,7.4,42.5,21,59.2c0.7,0.8,1.6,1.2,2.6,1.2c0.7,0,1.5-0.2,2.1-0.8c1.4-1.2,1.7-3.3,0.5-4.7
			C46.4,140.2,39.5,120.7,39.5,100.7L39.5,100.7z"/>
		<path class="st0" d="M184.5,76.9c-0.1-0.9-1.3-9.3-5.2-13.5c-4.7-5.2-10-5.7-12.5-6c-0.2,0-0.4,0-0.6-0.1c-0.1,0-0.1,0-0.2,0
			c-15.4-1.2-38.7-1.2-38.9-1.2H127c-0.2,0-23.5,0-38.9,1.2c-0.1,0-0.1,0-0.2,0c-0.2,0-0.4,0-0.6,0.1c-2.6,0.3-7.9,0.8-12.5,6
			c-3.9,4.2-5.1,12.6-5.2,13.5c0,0,0,0,0,0.1c0,0.4-1.1,9.8-1.1,19.5v8.9c0,9.6,1.1,19.1,1.1,19.5c0,0,0,0,0,0.1
			c0.1,0.9,1.3,9.3,5.2,13.5c4.3,4.8,9.8,5.5,12.7,5.9c0.5,0.1,1,0.1,1.3,0.2c0.1,0,0.2,0,0.3,0c8.9,0.9,36.7,1.2,37.9,1.2
			c0.2,0,23.5-0.1,38.9-1.2c0.1,0,0.1,0,0.2,0c0.2,0,0.4,0,0.6-0.1c2.5-0.3,7.8-0.8,12.5-6c3.9-4.2,5.1-12.6,5.2-13.5c0,0,0,0,0-0.1
			c0-0.4,1.1-9.8,1.1-19.5v-8.9C185.7,86.8,184.6,77.4,184.5,76.9C184.6,76.9,184.5,76.9,184.5,76.9L184.5,76.9z M179,105.4
			c0,9-1,18.1-1.1,18.7c-0.3,1.9-1.4,7.6-3.5,9.8l0,0c-2.9,3.3-6.1,3.6-8.2,3.8c-0.2,0-0.5,0.1-0.7,0.1c-15.2,1.2-38.1,1.2-38.3,1.2
			c-0.3,0-28.4-0.3-37.1-1.2c-0.5-0.1-1-0.2-1.6-0.2c-2.5-0.3-6-0.8-8.6-3.7l0,0c-1.9-2-3.1-7.1-3.5-9.8c-0.1-0.6-1.1-9.7-1.1-18.7
			v-8.9c0-9,1-18.1,1.1-18.7c0.3-1.9,1.4-7.6,3.5-9.8l0,0c2.9-3.3,6.1-3.6,8.2-3.8c0.2,0,0.5,0,0.7-0.1c15.2-1.2,38.1-1.2,38.3-1.2
			h0.1c0.2,0,23.2,0,38.3,1.2c0.2,0,0.4,0,0.7,0.1c2.1,0.2,5.3,0.5,8.2,3.8l0,0c1.9,2,3.1,7.1,3.5,9.8c0.1,0.6,1.1,9.7,1.1,18.7
			L179,105.4L179,105.4z"/>
		<path class="st0" d="M149.5,98L115,77.3c-1-0.6-2.3-0.6-3.4,0s-1.7,1.7-1.7,2.9v41.4c0,1.2,0.6,2.3,1.7,2.9
			c0.5,0.3,1.1,0.4,1.7,0.4s1.2-0.2,1.7-0.5l34.5-20.7c1-0.6,1.6-1.7,1.6-2.9C151.2,99.7,150.6,98.6,149.5,98L149.5,98z"/>
	</g>
	<g>
		<path d="M44,213.5h5.7v9.5h4v-9.5h5.7v23.7h-5.7v-9.9h-4v9.9H44V213.5z"/>
		<path d="M66.8,213.5h7.6l4.8,23.7h-5.6l-0.8-5.4h-4.4l-0.8,5.4H62L66.8,213.5z M70.7,217.2l-1.6,10.5h3.2L70.7,217.2z"/>
		<path d="M96,221.6h-5.5v-2.2c0-0.9,0-2.2-1.8-2.2s-1.8,1.2-1.8,2.2v11.8c0,0.8,0,2.3,1.8,2.3s1.8-1.4,1.8-2.2v-2.7h-2.2v-3.9H96
			v12.5h-5.5V235c-1.6,2.1-3.2,2.2-4.4,2.2c-5,0-5-4.7-5-7.8v-8.8c0-5.5,1.6-7.6,7.3-7.6c0.8,0,3.3,0,5,0.9c2.5,1.3,2.5,3.5,2.5,5.5
			L96,221.6L96,221.6z"/>
		<path d="M102.9,213.5h7.6l4.8,23.7h-5.5l-0.8-5.4h-4.4l-0.8,5.4h-5.6L102.9,213.5z M106.8,217.2l-1.6,10.5h3.2L106.8,217.2z"/>
		<path d="M141,222.2h-5.6v-2.9c0-1.3-0.2-2.1-2-2.1c-1.6,0-1.8,1-1.8,2.1v11.8c0,1.5,0.2,2.3,1.9,2.3c1.8,0,1.8-1.2,1.8-2.3v-2.9
			h5.8v2.1c0,4.5-1,7.2-7.7,7.2c-6.3,0-7.5-2.4-7.5-6.1v-11.7c0-1.7,0.2-3.1,1.2-4.3c1.8-2.2,4.8-2.3,6.4-2.3c2,0,4.1,0.3,5.7,1.6
			c1.7,1.4,1.8,3.3,1.8,4.8L141,222.2L141,222.2z"/>
		<path d="M144.4,213.5h5.8V233h5.9v4.2h-11.7L144.4,213.5L144.4,213.5z"/>
		<path d="M164.1,213.5v23.7h-5.7v-23.7H164.1z"/>
		<path d="M182.9,222.2h-5.6v-2.9c0-1.3-0.2-2.1-2-2.1c-1.6,0-1.8,1-1.8,2.1v11.8c0,1.5,0.2,2.3,1.9,2.3c1.8,0,1.8-1.2,1.8-2.3v-2.9
			h5.8v2.1c0,4.5-1,7.2-7.7,7.2c-6.3,0-7.5-2.4-7.5-6.1v-11.7c0-1.7,0.2-3.1,1.2-4.3c1.8-2.2,4.8-2.3,6.4-2.3c2,0,4.1,0.3,5.7,1.6
			c1.7,1.4,1.8,3.3,1.8,4.8L182.9,222.2L182.9,222.2z"/>
		<path d="M202.2,213.5l-4.8,11.2l5.4,12.5h-6l-4.8-11.6v11.6h-5.7v-23.7h5.7v10.7l4.4-10.7H202.2z"/>
		<path d="M0,241.5h9.5c4.2,0,5.6,1.4,5.6,4.9v4.9c0,4.5-1.8,5.4-5.3,5.4H5.7v8.6H0V241.5z M7.6,252.3c2.1,0,2.1-0.6,2.1-3.6
			c0-2.2,0-2.7-0.7-3c-0.4-0.2-2.6-0.2-3.3-0.2v6.8L7.6,252.3L7.6,252.3z"/>
		<path d="M20,241.5h7.6l4.8,23.7h-5.6l-0.8-5.4h-4.4l-0.8,5.4h-5.6L20,241.5z M23.9,245.2l-1.6,10.5h3.2L23.9,245.2z"/>
		<path d="M35,241.5h8c1.5,0,3.7,0.1,5,1.5c1,1.2,1.1,2.8,1.1,4.5c0,3.5-1.2,4.3-3,5.3c2.8,0.7,3,1.8,3,4.7v5c0,1.6,0.3,2,0.8,2.6
			h-5.3c-0.4-0.8-0.8-1.5-0.8-3.4c0-0.6,0.1-3.4,0.1-4.1c0-2.6-0.5-2.6-3.7-2.6v10.1h-5.4v-23.6H35z M40.3,245.6v5.4
			c1.7,0,2.2,0,2.5-0.1c1.1-0.2,1.2-1.1,1.2-2.9c0-2-0.3-2.4-2-2.4H40.3z"/>
		<path d="M56.2,241.5h7.6l4.8,23.7H63l-0.8-5.4h-4.4l-0.8,5.4h-5.6L56.2,241.5z M60.1,245.2l-1.6,10.5h3.2L60.1,245.2z"/>
		<path d="M83.5,241.5l2.5,18.3h0.3l2.4-18.3h5.8l-4.2,23.7h-8.1l-4.4-23.7H83.5z"/>
		<path d="M109.2,241.5v4.2h-6.5v5.4h6.1v4.2h-6.1v5.7h6.5v4.2H97v-23.7L109.2,241.5L109.2,241.5z"/>
		<path d="M112.3,241.5h8c1.5,0,3.7,0.1,5,1.5c1,1.2,1.1,2.8,1.1,4.5c0,3.5-1.2,4.3-3,5.3c2.8,0.7,3,1.8,3,4.7v5
			c0,1.6,0.3,2,0.8,2.6h-5.3c-0.4-0.8-0.8-1.5-0.8-3.4c0-0.6,0.1-3.4,0.1-4.1c0-2.6-0.5-2.6-3.7-2.6v10.1h-5.4v-23.6H112.3z
			 M117.7,245.6v5.4c1.7,0,2.2,0,2.5-0.1c1.1-0.2,1.2-1.1,1.2-2.9c0-2-0.3-2.4-2-2.4H117.7z"/>
		<path d="M151.1,241.5v4.2h-6.5v5.4h6.1v4.2h-6.1v5.7h6.5v4.2h-12.2v-23.7L151.1,241.5L151.1,241.5z"/>
		<path d="M154.2,241.5h5.8V261h5.9v4.2h-11.7L154.2,241.5L154.2,241.5z"/>
		<path d="M181.3,241.5l2.5,18.3h0.3l2.4-18.3h5.8l-4.2,23.7H180l-4.4-23.7H181.3z"/>
		<path d="M200.4,241.5v23.7h-5.7v-23.7H200.4z"/>
		<path d="M204.5,241.5h8.6c2.1,0,3.4,0.3,4.2,0.8c2.4,1.3,2.4,3.7,2.4,5.1v11.8c0,1.4,0,3.1-1.1,4.4c-1.3,1.4-3.3,1.6-5.2,1.6h-8.8
			v-23.7L204.5,241.5L204.5,241.5z M210,245.6v15.5h1.8c1.6,0,2.1-0.4,2.1-2v-11.3c0-1.5-0.5-2.1-2.1-2.1H210V245.6z"/>
		<path d="M235.6,241.5v4.2h-6.5v5.4h6.1v4.2h-6.1v5.7h6.5v4.2h-12.2v-23.7L235.6,241.5L235.6,241.5z"/>
		<path d="M238.4,248.2c0-1.9,0.2-3.7,1.7-5.2c1.8-1.9,4.5-1.9,6.2-1.9c7.5,0,7.5,5.1,7.5,7.7v9c0,1.9,0,4.2-1.7,5.9
			c-1.7,1.7-4.3,1.8-6,1.8c-7.5,0-7.7-4.8-7.7-7.5V248.2z M244.1,259.3c0,1.1,0,2,2,2c1.5,0,2-0.6,2-2v-12.1c0-1.5-0.5-1.9-2.1-1.9
			c-1.4,0-1.9,0.5-1.9,1.9V259.3z"/>
	</g>
</g>
</svg>
