<?xml version="1.0" encoding="utf-8"?>
<!-- Generator: Adobe Illustrator 21.0.0, SVG Export Plug-In . SVG Version: 6.00 Build 0)  -->
<svg version="1.1" id="Capa_1" xmlns="http://www.w3.org/2000/svg" xmlns:xlink="http://www.w3.org/1999/xlink" x="0px" y="0px"
	 viewBox="0 0 294.8 294.8" style="enable-background:new 0 0 294.8 294.8;" xml:space="preserve">
<style type="text/css">
	.st0{fill:#FFFFFF;}
</style>
<g>
	<path d="M243.8,244.8C218,270.7,183.5,285,146.9,285S75.8,270.7,50,244.8S9.8,184.5,9.8,147.9S24.1,76.8,50,51s60.3-40.2,96.9-40.2
		S218,25.1,243.8,51s40.2,60.3,40.2,96.9C284,184.5,269.7,219,243.8,244.8L243.8,244.8z"/>
	<path class="st0" d="M239.8,72.7c-1.5-1.8-4.2-2.2-6-0.6c-1.8,1.5-2.2,4.2-0.6,6c15.9,19.7,24.8,44.6,24.8,69.9
		c0,29.7-11.6,57.5-32.5,78.5c-21,21-48.9,32.5-78.5,32.5c-27.4,0-53.7-10.1-74.1-28.3c-1.8-1.5-4.5-1.4-6,0.4
		c-1.5,1.8-1.4,4.5,0.4,6c21.9,19.6,50.3,30.4,79.7,30.4c32,0,62-12.5,84.5-35c22.5-22.5,35-52.6,35-84.5
		C266.6,120.5,257.2,93.8,239.8,72.7L239.8,72.7z"/>
	<path class="st0" d="M35.9,147.9c0-61.2,49.8-111,111-111c27.4,0,53.7,10.1,74.1,28.3c1.8,1.5,4.5,1.4,6-0.4c1.5-1.8,1.4-4.5-0.4-6
		c-21.9-19.6-50.2-30.4-79.6-30.4c-32,0-62,12.5-84.5,35s-35,52.6-35,84.5c0,27.4,9.4,54.1,26.7,75.4c0.9,1,2,1.5,3.3,1.5
		c0.9,0,1.9-0.3,2.7-1c1.8-1.5,2.2-4.2,0.6-6C44.7,198.2,35.9,173.4,35.9,147.9L35.9,147.9z"/>
	<g>
		<path class="st0" d="M166.1,159.2c-2.2-2.1-5.7-2.1-7.9,0.1c-2.1,2.2-2.1,5.7,0.1,7.9l43.8,42.9c1.1,1.1,2.5,1.6,3.9,1.6
			c1.4,0,2.9-0.6,4-1.7c2.1-2.2,2.1-5.7-0.1-7.9L166.1,159.2z"/>
		<path class="st0" d="M126.8,134.7c1.1,1.1,2.5,1.6,3.9,1.6c1.4,0,2.8-0.5,3.9-1.6c2.2-2.2,2.2-5.7,0-7.9L92.7,84.9
			c-2.2-2.2-5.7-2.2-7.9,0c-2.2,2.2-2.2,5.7,0,7.9L126.8,134.7z"/>
		<path class="st0" d="M209.9,84.9c-2.2-2.2-5.7-2.2-7.9,0L84.8,202.1c-2.2,2.2-2.2,5.7,0,7.9c1.1,1.1,2.5,1.6,3.9,1.6
			c1.4,0,2.8-0.5,3.9-1.6L209.9,92.8C212.1,90.6,212.1,87.1,209.9,84.9z"/>
	</g>
</g>
</svg>
