<?xml version="1.0" encoding="utf-8"?>
<!-- Generator: Adobe Illustrator 21.0.0, SVG Export Plug-In . SVG Version: 6.00 Build 0)  -->
<svg version="1.1" id="Capa_1" xmlns="http://www.w3.org/2000/svg" xmlns:xlink="http://www.w3.org/1999/xlink" x="0px" y="0px"
	 viewBox="0 0 435 91" style="enable-background:new 0 0 435 91;" xml:space="preserve">
<style type="text/css">
	.st0{fill:#5C090E;}
	.st1{fill:#FFFFFF;}
</style>
<path class="st0" d="M418.5,91H16.5C7.4,91,0,83.6,0,74.5V16.5C0,7.4,7.4,0,16.5,0h401.9c9.1,0,16.5,7.4,16.5,16.5v57.9
	C435,83.6,427.6,91,418.5,91z"/>
<g>
	<path class="st1" d="M21.1,16.7H46v7.9H30.6v12.8h14.6v7.6H30.6v22.7h-9.5V16.7z"/>
	<path class="st1" d="M49.2,42.1c0-5.6,0-7.4,2-9.4c1.8-1.8,5.1-2.8,9.4-2.8c1.8,0,4.3,0.2,6.6,1.4c3.8,1.9,4.4,5.1,4.4,6.8v20.6
		c0,5.3,0,7.7,1.7,9h-9c-0.6-0.7-0.9-1.7-1-3.2c-1.8,2.1-3.5,4-7.4,4c-7.3,0-7.3-6.6-7.3-10.2c0-6.6,0-8.6,5.6-11.4l8.9-4.5
		c0-3.4,0-3.8-0.1-4.1c-0.1-0.8-0.4-2.5-3-2.5c-3,0-3,1.7-3,6.3H49.2z M62.9,49l-4.2,2.7c-1.7,1.2-1.9,2.5-1.9,6.1c0,2.9,0.5,4,2,4
		c0.9,0,2-0.3,4.1-2.1V49z"/>
	<path class="st1" d="M77.9,30.7h8.6l-0.1,4.7c1.4-2.6,3.4-5.5,8.4-5.3v8.5C94.2,38.4,93.3,38,92,38c-5.6,0-5.6,5.1-5.6,7.9v21.7
		h-8.5V30.7z"/>
	<path class="st1" d="M99,30.7h8.7v2.5c1.7-1.4,3.7-3.2,7.2-3.2c3.8,0,5.8,2.2,7,3.7c2.2-1.9,4.3-3.7,8.4-3.7c2.5,0,4.3,1,5.3,2.1
		c1.7,1.7,2.1,3.8,2.1,6.3v29.3h-8.6V40.4c0-1.7,0-4.3-3.1-4.3c-2.4,0-3.4,1.7-3.4,4.7v26.9H114V40.5c0-1.9,0-4.6-3.2-4.6
		c-2.4,0-3.3,1.8-3.3,4.4v27.4H99V30.7z"/>
	<path class="st1" d="M143.9,42.1c0-5.6,0-7.4,2-9.4c1.8-1.8,5.1-2.8,9.4-2.8c1.8,0,4.3,0.2,6.6,1.4c3.8,1.9,4.4,5.1,4.4,6.8v20.6
		c0,5.3,0,7.7,1.7,9h-9c-0.6-0.7-0.9-1.7-1-3.2c-1.8,2.1-3.5,4-7.4,4c-7.3,0-7.3-6.6-7.3-10.2c0-6.6,0-8.6,5.6-11.4l8.9-4.5
		c0-3.4,0-3.8-0.1-4.1c-0.1-0.8-0.4-2.5-3-2.5c-3,0-3,1.7-3,6.3H143.9z M157.7,49l-4.2,2.7c-1.7,1.2-1.9,2.5-1.9,6.1
		c0,2.9,0.5,4,2,4c0.9,0,2-0.3,4.1-2.1V49z"/>
	<path class="st1" d="M187.4,44.7v-4.5c0-1.2,0-4.1-3.2-4.1c-3.5,0-3.5,3.2-3.5,5.1v16c0,1.7,0,4.8,3.4,4.8c3.2,0,3.3-3.2,3.3-4.8
		V53h8.5v4.2c0,7.5-4,11.2-11.8,11.2c-1.9,0-5.8-0.2-8.7-2.5c-2.8-2.2-3.2-5.2-3.2-8.2V41.2c0-2.5,0.5-5.2,2.1-7.1
		c2.3-3,6.1-4.1,9.9-4.1c3.2,0,6.6,0.9,8.7,2.6c2.2,1.9,3,4.2,3,7.7v4.4H187.4z"/>
	<path class="st1" d="M200.8,40.7c0-4.5,1.5-10.7,11.7-10.7c2.6,0,5.6,0.6,7.8,2c3.1,2.2,3.6,5.3,3.6,8.3v17.8
		c0,6.6-4.2,10.3-11.8,10.3c-11.3,0-11.3-8.4-11.3-11.2V40.7z M209.4,58.6c0,0.9,0,3.8,3,3.8c3,0,3-2.5,3-3.9V39.8
		c0-2.1-0.3-4.5-2.9-4.5c-3.1,0-3.1,2.8-3.1,4.5V58.6z"/>
	<path class="st1" d="M244.6,44.7v-4.5c0-1.2,0-4.1-3.2-4.1c-3.5,0-3.5,3.2-3.5,5.1v16c0,1.7,0,4.8,3.4,4.8c3.2,0,3.3-3.2,3.3-4.8
		V53h8.5v4.2c0,7.5-4,11.2-11.8,11.2c-1.9,0-5.8-0.2-8.7-2.5c-2.8-2.2-3.2-5.2-3.2-8.2V41.2c0-2.5,0.5-5.2,2.1-7.1
		c2.3-3,6.1-4.1,9.9-4.1c3.2,0,6.6,0.9,8.7,2.6c2.2,1.9,3,4.2,3,7.7v4.4H244.6z"/>
	<path class="st1" d="M258.4,16.6h8.6v8.7h-8.6V16.6z M258.4,30.7h8.7v37h-8.7V30.7z"/>
	<path class="st1" d="M273.4,30.7h8.7l-0.1,2.7c1.7-1.7,3.6-3.5,7.4-3.5c2.7,0,4.7,1,5.9,2.5c1.7,1.9,1.7,4.1,1.7,6.4v28.9h-8.4
		V40.5c0-2-0.1-4.5-3-4.5c-3.6,0-3.6,3.3-3.6,5v26.6h-8.6V30.7z"/>
	<path class="st1" d="M311.6,57.1c0,1.6,0,4.5,3.2,4.5c1,0,1.8-0.4,2.3-1.1c0.6-0.9,0.7-1.3,0.7-5.1h8.4v3c0,8-5.9,10-11.3,10
		c-8.4,0-11.8-4.4-11.8-11.8V41c0-4.6,1.6-7.2,4-8.9c2.2-1.5,5.2-2.2,7.8-2.2c3.4,0,6.7,1.1,9,3.2c2.1,2.2,2.5,5.2,2.5,7.4v10.5
		h-14.7V57.1z M314.8,15.3H326c-3.9,4-4.8,5-9.2,9.7h-6.8L314.8,15.3z M311.7,45h6.1v-4.5c0-1,0-3.7-3-3.7c-2.2,0-3.2,1.4-3.2,3.7
		V45z"/>
	<path class="st1" d="M334,17.4h8.6v13.4h5.1v5.7h-5.2v21.1c0,2.4,0.4,4,3.9,4c0.6,0,0.9-0.1,1.5-0.1v6.1c-0.6,0.1-1.7,0.4-4.5,0.4
		c-8.1,0-9.3-3-9.3-7.7V36.4h-4.7v-5.7h4.6V17.4z"/>
	<path class="st1" d="M351.7,16.6h8.6v8.7h-8.6V16.6z M351.7,30.7h8.7v37h-8.7V30.7z"/>
	<path class="st1" d="M381.5,44.7v-4.5c0-1.2,0-4.1-3.2-4.1c-3.5,0-3.5,3.2-3.5,5.1v16c0,1.7,0,4.8,3.4,4.8c3.2,0,3.3-3.2,3.3-4.8
		V53h8.5v4.2c0,7.5-4,11.2-11.8,11.2c-1.9,0-5.8-0.2-8.7-2.5c-2.8-2.2-3.2-5.2-3.2-8.2V41.2c0-2.5,0.5-5.2,2.1-7.1
		c2.3-3,6.1-4.1,9.9-4.1c3.2,0,6.6,0.9,8.7,2.6c2.2,1.9,3,4.2,3,7.7v4.4H381.5z"/>
	<path class="st1" d="M395.1,42.1c0-5.6,0-7.4,2-9.4c1.8-1.8,5.1-2.8,9.4-2.8c1.8,0,4.3,0.2,6.6,1.4c3.8,1.9,4.4,5.1,4.4,6.8v20.6
		c0,5.3,0,7.7,1.7,9h-9c-0.7-0.7-0.9-1.7-1-3.2c-1.8,2.1-3.5,4-7.4,4c-7.3,0-7.3-6.6-7.3-10.2c0-6.6,0-8.6,5.6-11.4l8.9-4.5
		c0-3.4,0-3.8-0.1-4.1c-0.1-0.8-0.4-2.5-3-2.5c-3,0-3,1.7-3,6.3H395.1z M408.9,49l-4.2,2.7c-1.7,1.2-1.9,2.5-1.9,6.1
		c0,2.9,0.5,4,2,4c0.9,0,2-0.3,4.1-2.1V49z"/>
</g>
</svg>
