<?xml version="1.0" encoding="utf-8"?>
<!-- Generator: Adobe Illustrator 21.0.0, SVG Export Plug-In . SVG Version: 6.00 Build 0)  -->
<svg version="1.1" id="Capa_1" xmlns="http://www.w3.org/2000/svg" xmlns:xlink="http://www.w3.org/1999/xlink" x="0px" y="0px"
	 viewBox="0 0 328.8 91" style="enable-background:new 0 0 328.8 91;" xml:space="preserve">
<style type="text/css">
	.st0{fill:#5C090E;}
	.st1{enable-background:new    ;}
	.st2{fill:#FFFFFF;}
</style>
<path class="st0" d="M312.3,91H16.4C7.4,91,0,83.6,0,74.6V16.4C0,7.4,7.4,0,16.4,0h295.9c9.1,0,16.4,7.4,16.4,16.4v58.1
	C328.8,83.6,321.4,91,312.3,91z"/>
<g>
	<g class="st1">
		<path class="st2" d="M16.9,18.3h9.3v51h-9.3V18.3z"/>
		<path class="st2" d="M33,32.3h8.7L41.6,35c1.7-1.7,3.6-3.5,7.4-3.5c2.7,0,4.7,1,5.9,2.5c1.7,1.9,1.7,4.1,1.7,6.4v28.9h-8.4V42.1
			c0-2-0.1-4.5-3-4.5c-3.6,0-3.6,3.3-3.6,5v26.6H33V32.3z"/>
		<path class="st2" d="M78.2,18.2h8.5v51h-8.7l0.1-3.6c-1.4,1.9-3,4.3-7.1,4.3c-3.5,0-6.1-1.9-7.2-3.9c-0.9-1.8-1.1-4.3-1.1-7.9
			V41.3c0-2.6,0.3-4,1-5.5c1.6-3.2,5-4.3,7-4.3c3.4,0,5.7,2.2,7.5,3.8V18.2z M71.2,58.5c0,1.8,0,4.2,3.3,4.2c3.6,0,3.6-3.3,3.6-4.5
			V42.4c0-1.2,0-4.3-3.6-4.3c-3.3,0-3.3,2.9-3.3,4.7V58.5z"/>
		<path class="st2" d="M93.2,18.2h8.6v8.7h-8.6V18.2z M93.2,32.3h8.7v37h-8.7V32.3z"/>
		<path class="st2" d="M123,46.3v-4.5c0-1.2,0-4.1-3.2-4.1c-3.5,0-3.5,3.2-3.5,5.1v16c0,1.7,0,4.8,3.4,4.8c3.2,0,3.3-3.2,3.3-4.8
			v-4.3h8.5v4.2c0,7.5-4,11.2-11.8,11.2c-1.9,0-5.8-0.2-8.7-2.5c-2.8-2.2-3.2-5.2-3.2-8.2V42.8c0-2.5,0.5-5.2,2.1-7.1
			c2.3-3,6.1-4.1,9.9-4.1c3.2,0,6.6,0.9,8.7,2.6c2.2,1.9,3,4.2,3,7.7v4.4H123z"/>
		<path class="st2" d="M136.6,43.7c0-5.6,0-7.4,2-9.4c1.8-1.8,5.1-2.8,9.4-2.8c1.8,0,4.3,0.2,6.6,1.4c3.8,1.9,4.4,5.1,4.4,6.8v20.6
			c0,5.3,0,7.7,1.7,9h-9c-0.6-0.7-0.9-1.7-1-3.2c-1.8,2.1-3.5,4-7.4,4c-7.3,0-7.3-6.6-7.3-10.2c0-6.6,0-8.6,5.6-11.4l8.9-4.5
			c0-3.4,0-3.8-0.1-4.1c-0.1-0.8-0.4-2.5-3-2.5c-3,0-3,1.7-3,6.3H136.6z M150.4,50.6l-4.2,2.7c-1.7,1.2-1.9,2.5-1.9,6.1
			c0,2.9,0.5,4,2,4c0.9,0,2-0.3,4.1-2.1V50.6z"/>
		<path class="st2" d="M180.2,46.3v-4.5c0-1.2,0-4.1-3.2-4.1c-3.5,0-3.5,3.2-3.5,5.1v16c0,1.7,0,4.8,3.4,4.8c3.2,0,3.3-3.2,3.3-4.8
			v-4.3h8.5v4.2c0,7.5-4,11.2-11.8,11.2c-1.9,0-5.8-0.2-8.7-2.5c-2.8-2.2-3.2-5.2-3.2-8.2V42.8c0-2.5,0.5-5.2,2.1-7.1
			c2.3-3,6.1-4.1,9.9-4.1c3.2,0,6.6,0.9,8.7,2.6c2.2,1.9,3,4.2,3,7.7v4.4H180.2z"/>
		<path class="st2" d="M193.9,18.2h8.6v8.7h-8.6V18.2z M193.9,32.3h8.7v37h-8.7V32.3z"/>
		<path class="st2" d="M208.5,42.2c0-4.5,1.5-10.7,11.7-10.7c2.6,0,5.6,0.6,7.8,2c3.1,2.2,3.6,5.3,3.6,8.3v17.8
			c0,6.6-4.2,10.3-11.8,10.3c-11.3,0-11.3-8.4-11.3-11.2V42.2z M217.1,60.2c0,0.9,0,3.8,3,3.8c3,0,3-2.5,3-3.9V41.3
			c0-2.1-0.3-4.5-2.9-4.5c-3.1,0-3.1,2.8-3.1,4.5V60.2z"/>
		<path class="st2" d="M237.5,32.3h8.7l-0.1,2.7c1.7-1.7,3.6-3.5,7.4-3.5c2.7,0,4.7,1,5.9,2.5c1.7,1.9,1.7,4.1,1.7,6.4v28.9h-8.4
			V42.1c0-2-0.1-4.5-3-4.5c-3.6,0-3.6,3.3-3.6,5v26.6h-8.6V32.3z"/>
		<path class="st2" d="M275.7,58.7c0,1.6,0,4.5,3.2,4.5c1,0,1.8-0.4,2.3-1.1c0.7-0.9,0.7-1.3,0.7-5.1h8.4v3c0,8-5.9,10-11.3,10
			c-8.4,0-11.8-4.4-11.8-11.8V42.5c0-4.6,1.6-7.2,4-8.9c2.2-1.5,5.2-2.2,7.8-2.2c3.4,0,6.7,1.1,9,3.2c2.1,2.2,2.5,5.2,2.5,7.4v10.5
			h-14.7V58.7z M275.8,46.5h6.1V42c0-1,0-3.7-3-3.7c-2.2,0-3.2,1.4-3.2,3.7V46.5z"/>
		<path class="st2" d="M295,56.2h7.9c0,5.3,0,7.6,3.4,7.6c1.9,0,3.3-0.9,3.3-4c0-2.2-0.1-3.2-2.5-4.8l-7.1-5.1
			c-0.5-0.4-1.8-1.6-2.4-2.3c-0.9-1.1-2-2.6-2-6.6c0-7.8,5.1-9.5,11.1-9.5c7.5,0,10.5,3.2,10.5,8.5v4h-7.4c0-4.2,0-6.6-3.1-6.6
			c-1.2,0-3,0.2-3,3.3c0,1,0.1,2.4,2.5,4l7.9,5.6c0.5,0.4,2.1,1.9,2.4,2.5c1,1.4,1.2,3.4,1.2,5.8c0,4.7,0,11.4-11.4,11.4
			c-9.2,0-11.2-4.7-11.2-9.8V56.2z"/>
	</g>
</g>
</svg>
