<?xml version="1.0" encoding="utf-8"?>
<!-- Generator: Adobe Illustrator 21.0.0, SVG Export Plug-In . SVG Version: 6.00 Build 0)  -->
<svg version="1.1" id="Layer_2" xmlns="http://www.w3.org/2000/svg" xmlns:xlink="http://www.w3.org/1999/xlink" x="0px" y="0px"
	 viewBox="0 0 504 360" style="enable-background:new 0 0 504 360;" xml:space="preserve">
<style type="text/css">
	.st0{fill:#FFFFFF;}
	.st1{fill:#EE3524;}
</style>
<g>
	<g>
		<g>
			<path class="st0" d="M469.1,228.8c-2,0-3.5-0.5-4.4-1.6c-0.9-1-1.3-2.3-1.3-3.8c0-0.2,0-0.3,0-0.5l0-0.5l4.3,0.7l0,0.3
				c0.1,0.6,0.2,0.8,0.3,0.9c0.2,0.2,0.5,0.3,1,0.3c0.7,0,1.2-0.1,1.5-0.4c0.2-0.2,0.3-0.4,0.5-0.8c0.1-0.2,0.1-0.7,0.1-1.8v-0.8
				c-0.8,1-1.8,1.5-2.9,1.5c-1.7,0-3-1-4-3c-0.7-1.5-1.1-3.4-1.1-5.6c0-2.8,0.5-4.9,1.4-6.4c1-1.5,2.3-2.3,3.8-2.3
				c1.2,0,2.2,0.5,3,1.5v-1.2h3.7v14.8c0,1.9-0.1,3.4-0.3,4.3c-0.2,1-0.6,1.8-1,2.4c-0.4,0.6-1,1.1-1.8,1.4
				C471,228.6,470.1,228.8,469.1,228.8z M464.2,223.4c0,1.3,0.4,2.4,1.1,3.2c0.7,0.8,2,1.2,3.7,1.2c0.9,0,1.7-0.1,2.3-0.4
				c0.6-0.3,1.1-0.6,1.4-1.1c0.4-0.5,0.6-1.2,0.8-2c0.2-0.9,0.3-2.3,0.3-4.1v-13.9h-1.9v1.8l-0.9,0.2c-0.8-1.6-1.8-2.4-3.1-2.4
				c-1.2,0-2.2,0.6-3,1.9c-0.9,1.3-1.3,3.3-1.3,5.9c0,2.1,0.3,3.8,1,5.2c0.8,1.7,1.9,2.5,3.2,2.5c1.2,0,2.2-0.8,3-2.4l0.9,0.2v2.3
				c0,1,0,1.7-0.2,2.1c-0.2,0.6-0.4,1-0.7,1.3c-0.5,0.4-1.1,0.6-2,0.6c-0.7,0-1.3-0.2-1.7-0.6c-0.2-0.2-0.4-0.6-0.5-1.1L464.2,223.4
				z M362.5,228.8c-2,0-3.5-0.5-4.4-1.6c-0.9-1-1.3-2.3-1.3-3.8c0-0.2,0-0.3,0-0.5l0-0.5l4.3,0.7l0,0.3c0.1,0.6,0.2,0.8,0.3,0.9
				c0.2,0.2,0.5,0.3,1,0.3c0.7,0,1.2-0.1,1.5-0.4c0.2-0.2,0.3-0.4,0.5-0.8c0.1-0.2,0.1-0.7,0.1-1.8v-0.8c-0.8,1-1.8,1.5-2.9,1.5
				c-1.7,0-3-1-4-3c-0.7-1.5-1.1-3.4-1.1-5.6c0-2.8,0.5-4.9,1.4-6.4c1-1.5,2.3-2.3,3.8-2.3c1.2,0,2.2,0.5,3,1.5v-1.2h3.7v14.8
				c0,1.9-0.1,3.4-0.3,4.3c-0.2,1-0.6,1.8-1,2.4c-0.4,0.6-1,1.1-1.8,1.4C364.4,228.6,363.5,228.8,362.5,228.8z M357.6,223.4
				c0,1.3,0.4,2.4,1.1,3.2c0.7,0.8,2,1.2,3.7,1.2c0.9,0,1.7-0.1,2.3-0.4c0.6-0.3,1.1-0.6,1.4-1.1c0.4-0.5,0.6-1.2,0.8-2
				c0.2-0.9,0.3-2.3,0.3-4.1v-13.9h-1.9v1.8l-0.9,0.2c-0.8-1.6-1.8-2.4-3.1-2.4c-1.2,0-2.2,0.6-3,1.9c-0.9,1.3-1.3,3.3-1.3,5.9
				c0,2.1,0.3,3.8,1,5.2c0.8,1.7,1.9,2.5,3.2,2.5c1.2,0,2.2-0.8,3-2.4l0.9,0.2v2.3c0,1,0,1.7-0.2,2.1c-0.2,0.6-0.4,1-0.7,1.3
				c-0.5,0.4-1.1,0.6-2,0.6c-0.7,0-1.3-0.2-1.7-0.6c-0.2-0.2-0.4-0.6-0.5-1.1L357.6,223.4z M93.2,228.3h-3.9v-23H93v1.2
				c0.2-0.3,0.5-0.5,0.7-0.7c0.7-0.6,1.5-0.9,2.3-0.9c1.5,0,2.7,0.8,3.7,2.4c1,1.5,1.4,3.6,1.4,6.3c0,2.7-0.5,4.9-1.4,6.5
				c-1,1.6-2.3,2.4-3.7,2.4c-0.7,0-1.4-0.2-2-0.6c-0.3-0.2-0.6-0.5-0.9-0.8V228.3z M90.3,227.4h2.1v-9.1l0.8,1.3
				c0.5,0.8,1,1.4,1.5,1.7c0.4,0.3,0.9,0.4,1.4,0.4c1.2,0,2.1-0.7,3-2c0.9-1.4,1.3-3.4,1.3-6c0-2.5-0.4-4.5-1.3-5.9
				c-0.8-1.3-1.8-2-3-2c-0.7,0-1.2,0.2-1.8,0.7c-0.6,0.5-1,1.1-1.3,1.8l-0.9-0.2v-1.9h-1.9V227.4z M430.9,222.6
				c-1.7,0-3.1-0.9-4.1-2.7c-1-1.7-1.5-4.7-1.5-9.1c0-4.3,0.5-7.3,1.6-9.2c0.9-1.7,2.2-2.5,3.9-2.5c1.7,0,3,0.9,3.9,2.5
				c1,1.9,1.6,5,1.6,9.2c0,4.2-0.5,7.3-1.6,9.2C433.9,221.8,432.6,222.6,430.9,222.6z M430.9,200.1c-1.3,0-2.4,0.7-3.1,2
				c-1,1.8-1.5,4.7-1.5,8.8c0,4.1,0.4,7,1.3,8.6c0.9,1.5,1.9,2.3,3.3,2.3c1.3,0,2.4-0.7,3.1-2c1-1.8,1.5-4.7,1.5-8.8
				c0-4.1-0.5-7-1.5-8.8C433.3,200.7,432.3,200.1,430.9,200.1z M418.8,222.6c-1.5,0-2.8-0.6-3.9-1.9c-1-1.2-1.6-2.8-1.7-4.8l0-0.4
				l3.8-0.6l0,0.5c0.1,1,0.3,1.7,0.7,2.2c0.7,0.9,1.6,0.9,2.3-0.1c0.4-0.6,0.6-1.4,0.6-2.4c0-1-0.2-1.7-0.5-2.3
				c-0.6-0.9-1.2-0.9-2.3-0.5l-0.7,0.3l0.4-4.6l0.4,0c0.7,0,1.2-0.2,1.5-0.6c0.4-0.5,0.5-1,0.5-1.8c0-0.6-0.1-1.2-0.4-1.5
				c-0.2-0.3-0.5-0.5-0.9-0.5c-0.2,0-0.6,0.1-0.9,0.6c-0.3,0.4-0.5,1.1-0.6,2l0,0.5l-3.7-0.9l0.1-0.4c0.2-1.4,0.5-2.5,0.9-3.3
				c0.4-0.9,1-1.6,1.8-2.1c0.8-0.5,1.6-0.8,2.6-0.8c1.6,0,2.9,0.7,3.9,2.2c0.8,1.2,1.2,2.5,1.2,3.9c0,1.8-0.6,3.3-1.9,4.5
				c0.7,0.4,1.2,1,1.7,1.7c0.6,1,0.9,2.2,0.9,3.6c0,2-0.5,3.8-1.6,5.2C421.8,221.9,420.4,222.6,418.8,222.6z M414.1,216.3
				c0.2,1.6,0.7,2.9,1.5,3.9c0.9,1,1.9,1.6,3.2,1.6c1.3,0,2.5-0.6,3.4-1.9c0.9-1.3,1.4-2.9,1.4-4.7c0-1.3-0.3-2.3-0.7-3.2
				c-0.5-0.8-1.1-1.4-1.9-1.6l-0.8-0.3l0.7-0.5c1.4-1.1,2.1-2.5,2.1-4.3c0-1.3-0.3-2.4-1-3.4c-0.8-1.2-1.8-1.8-3.2-1.8
				c-0.8,0-1.5,0.2-2.1,0.6c-0.6,0.4-1.1,1-1.5,1.7c-0.3,0.7-0.6,1.6-0.8,2.7l1.9,0.4c0.1-0.8,0.3-1.4,0.7-1.9
				c0.4-0.6,1-0.9,1.7-0.9c0.7,0,1.2,0.3,1.6,0.9c0.4,0.5,0.6,1.2,0.6,2c0,1-0.2,1.8-0.7,2.4c-0.4,0.5-1,0.8-1.8,0.9l-0.2,2.4
				c0.3-0.1,0.6-0.1,0.9-0.1c0.5,0,1.3,0.2,1.9,1.1c0.4,0.7,0.7,1.6,0.7,2.8c0,1.2-0.2,2.2-0.7,2.9c-0.5,0.8-1.2,1.2-1.9,1.2
				c-0.7,0-1.3-0.4-1.8-1c-0.4-0.5-0.6-1.2-0.8-2.1L414.1,216.3z M399.2,222.6c-1.3,0-2.4-0.5-3.1-1.5c-0.7-1-1.1-2.2-1.1-3.7
				c0-1,0.2-1.8,0.5-2.6c0.3-0.8,0.8-1.4,1.4-1.8c0.6-0.4,1.4-0.7,2.5-1.1c1.4-0.4,2.1-0.7,2.6-0.9v-0.2c0-0.7-0.1-1.2-0.3-1.5
				c-0.2-0.2-0.6-0.4-1.3-0.4c-0.4,0-0.7,0.1-0.9,0.3c-0.2,0.2-0.4,0.5-0.6,1.4l-0.1,0.4l-3.6-0.9l0.1-0.4c0.3-1.6,0.9-2.9,1.7-3.7
				c0.8-0.8,2.1-1.2,3.6-1.2c1.4,0,2.5,0.3,3.2,0.8c0.7,0.5,1.2,1.1,1.5,1.9c0.3,0.8,0.4,2,0.4,4l0,4.9c0,1.4,0,2.4,0.1,3
				c0.1,0.6,0.3,1.3,0.5,2.1l0.2,0.6h-3.9l-0.1-0.3c-0.1-0.2-0.1-0.5-0.2-0.9c-0.4,0.4-0.8,0.7-1.2,1
				C400.6,222.4,399.9,222.6,399.2,222.6z M400.4,208.2c0.9,0,1.6,0.2,2,0.7c0.4,0.4,0.5,1.1,0.5,2v0.7l-0.2,0.1
				c-0.6,0.3-1.6,0.7-3,1.1c-1,0.3-1.7,0.6-2.2,0.9c-0.5,0.3-0.8,0.8-1.1,1.4c-0.3,0.6-0.4,1.4-0.4,2.2c0,1.3,0.3,2.3,0.9,3.1
				c0.6,0.8,1.4,1.2,2.4,1.2c0.6,0,1.1-0.1,1.6-0.5c0.5-0.3,1-0.8,1.5-1.5l0.5-0.8l0.3,0.9c0,0.1,0.1,0.3,0.1,0.5
				c0.1,0.3,0.1,0.6,0.2,0.9h2c-0.2-0.6-0.3-1.1-0.4-1.6c-0.1-0.7-0.1-1.7-0.1-3.2l0-4.9c0-1.8-0.1-3-0.4-3.6
				c-0.2-0.6-0.6-1.1-1.2-1.5c-0.6-0.4-1.5-0.6-2.7-0.6c-1.3,0-2.3,0.3-3,1c-0.6,0.6-1.1,1.5-1.4,2.8l1.9,0.5c0.2-0.6,0.4-1,0.7-1.3
				C399.2,208.4,399.8,208.2,400.4,208.2z M387,222.6c-1.5,0-2.7-0.8-3.7-2.4c-1-1.6-1.5-3.7-1.5-6.4c0-2.8,0.5-5,1.4-6.4
				c1-1.5,2.3-2.3,3.8-2.3c1,0,2,0.5,2.8,1.3v-7.1h3.9v23H390V221c-0.3,0.3-0.6,0.6-0.9,0.9C388.4,222.4,387.7,222.6,387,222.6z
				 M387,205.9c-1.2,0-2.2,0.6-3,1.9c-0.8,1.3-1.3,3.3-1.3,6c0,2.6,0.4,4.6,1.3,6c0.8,1.4,1.8,2,3,2c0.6,0,1.1-0.2,1.6-0.6
				c0.6-0.4,1.1-1,1.5-1.9l0.9,0.2v1.9h1.9v-21.2h-2.1v9.1l-0.8-1.3C389.1,206.5,388.1,205.9,387,205.9z M373.8,222.6
				c-1.3,0-2.4-0.5-3.1-1.5c-0.7-1-1.1-2.2-1.1-3.7c0-1,0.2-1.8,0.5-2.6c0.3-0.8,0.8-1.4,1.4-1.8c0.6-0.4,1.4-0.7,2.5-1.1
				c1.4-0.4,2.1-0.7,2.6-0.9v-0.2c0-0.7-0.1-1.2-0.3-1.5c-0.2-0.2-0.6-0.4-1.3-0.4c-0.4,0-0.7,0.1-0.9,0.3c-0.2,0.2-0.4,0.5-0.6,1.3
				l-0.1,0.4l-3.6-0.9l0.1-0.4c0.3-1.7,0.9-2.9,1.7-3.7c0.8-0.8,2.1-1.2,3.6-1.2c1.4,0,2.5,0.3,3.2,0.8c0.7,0.5,1.2,1.1,1.5,1.9
				c0.3,0.8,0.4,2,0.4,4l0,4.9c0,1.4,0,2.4,0.1,3c0.1,0.6,0.3,1.3,0.5,2.1l0.2,0.6h-3.9l-0.1-0.3c-0.1-0.2-0.1-0.5-0.2-0.9
				c-0.4,0.4-0.8,0.7-1.2,1C375.2,222.4,374.5,222.6,373.8,222.6z M375,208.2c0.9,0,1.6,0.2,2,0.7c0.4,0.4,0.5,1.1,0.5,2v0.7
				l-0.2,0.1c-0.6,0.3-1.6,0.7-3,1.1c-1,0.3-1.7,0.6-2.2,0.9c-0.5,0.3-0.9,0.8-1.1,1.4c-0.3,0.7-0.4,1.4-0.4,2.2
				c0,1.3,0.3,2.3,0.9,3.1c0.6,0.8,1.4,1.2,2.4,1.2c0.6,0,1.1-0.1,1.6-0.5c0.5-0.3,1-0.8,1.5-1.5l0.5-0.8l0.3,0.9
				c0,0.1,0.1,0.3,0.1,0.5c0.1,0.3,0.1,0.6,0.2,0.9h2c-0.2-0.6-0.3-1.1-0.4-1.6c-0.1-0.7-0.1-1.7-0.1-3.2l0-4.9c0-1.8-0.1-3-0.4-3.6
				c-0.2-0.6-0.6-1.1-1.2-1.5c-0.6-0.4-1.5-0.6-2.7-0.6c-1.3,0-2.3,0.3-3,1c-0.6,0.6-1.1,1.5-1.4,2.8l1.9,0.5c0.2-0.6,0.4-1,0.7-1.3
				C373.8,208.4,374.3,208.2,375,208.2z M336,222.6c-1.1,0-2.2-0.4-3.2-1.1c-1-0.7-1.8-1.8-2.3-3.1c-0.5-1.3-0.8-3-0.8-4.8
				c0-1.5,0.3-2.9,0.8-4.2c0.5-1.4,1.3-2.5,2.2-3.2c1-0.8,2.1-1.1,3.3-1.1c1.9,0,3.4,0.9,4.6,2.6c1.1,1.6,1.7,3.7,1.7,6.2
				c0,2.5-0.6,4.6-1.7,6.3C339.4,221.7,337.8,222.6,336,222.6z M336,205.9c-1,0-1.9,0.3-2.7,1c-0.8,0.6-1.5,1.6-1.9,2.8
				c-0.5,1.3-0.7,2.6-0.7,3.9c0,1.8,0.2,3.3,0.7,4.5c0.5,1.2,1.1,2.1,2,2.7c0.9,0.6,1.8,0.9,2.7,0.9c1.5,0,2.8-0.7,3.8-2.2
				c1-1.5,1.6-3.5,1.6-5.8c0-2.3-0.5-4.2-1.6-5.7C338.8,206.6,337.6,205.9,336,205.9z M316.6,222.6c-1.1,0-2.2-0.4-3.2-1.1
				c-1-0.7-1.8-1.8-2.3-3.1c-0.5-1.3-0.8-3-0.8-4.8c0-1.4,0.3-2.9,0.8-4.2c0.5-1.4,1.3-2.5,2.2-3.2c1-0.8,2.1-1.1,3.3-1.1
				c1.9,0,3.4,0.9,4.6,2.6c1.1,1.6,1.7,3.7,1.7,6.2c0,2.5-0.6,4.6-1.7,6.3C320,221.7,318.5,222.6,316.6,222.6z M316.6,205.9
				c-1,0-1.9,0.3-2.7,0.9c-0.8,0.6-1.5,1.6-1.9,2.8c-0.5,1.3-0.7,2.6-0.7,3.9c0,1.8,0.2,3.3,0.7,4.5c0.5,1.2,1.1,2.1,2,2.7
				c0.9,0.6,1.8,0.9,2.7,0.9c1.5,0,2.8-0.7,3.8-2.2c1-1.5,1.6-3.5,1.6-5.8c0-2.3-0.5-4.2-1.6-5.7
				C319.4,206.6,318.2,205.9,316.6,205.9z M260.9,222.6c-1.1,0-2.2-0.4-3.2-1.1c-1-0.7-1.8-1.8-2.3-3.1c-0.5-1.3-0.8-3-0.8-4.8
				c0-1.4,0.3-2.9,0.8-4.2c0.5-1.4,1.3-2.5,2.2-3.2c1-0.8,2.1-1.1,3.3-1.1c1.9,0,3.4,0.9,4.6,2.6c1.1,1.6,1.7,3.7,1.7,6.2
				c0,2.5-0.6,4.6-1.7,6.3C264.3,221.7,262.8,222.6,260.9,222.6z M260.9,205.9c-1,0-1.9,0.3-2.7,0.9c-0.8,0.6-1.5,1.6-1.9,2.8
				c-0.5,1.3-0.7,2.6-0.7,3.9c0,1.8,0.2,3.3,0.7,4.5c0.5,1.2,1.1,2.1,2,2.7c0.9,0.6,1.8,0.9,2.7,0.9c1.5,0,2.8-0.7,3.8-2.2
				c1-1.5,1.6-3.5,1.6-5.8c0-2.3-0.5-4.2-1.6-5.7C263.7,206.6,262.5,205.9,260.9,205.9z M242.4,222.6c-1.8,0-3.3-0.8-4.3-2.4
				c-1-1.5-1.5-3.7-1.5-6.4c0-2.7,0.5-4.9,1.6-6.4c1.1-1.6,2.5-2.4,4.4-2.4c1.5,0,2.7,0.5,3.6,1.4c0.9,0.9,1.5,2.3,1.9,4.1l0.1,0.4
				l-3.9,1l-0.1-0.5c-0.1-0.7-0.3-1.3-0.6-1.6c-0.3-0.3-0.6-0.5-1-0.5c-0.6,0-1,0.3-1.4,0.9c-0.4,0.7-0.6,1.8-0.6,3.4
				c0,1.8,0.2,3.1,0.6,3.8c0.4,0.6,0.8,0.9,1.4,0.9c0.4,0,0.8-0.2,1-0.5c0.2-0.3,0.5-0.9,0.7-2.1l0.1-0.5l3.8,0.9l-0.1,0.4
				c-0.3,2-0.9,3.5-1.9,4.6C245.3,222.1,244,222.6,242.4,222.6z M242.4,205.9c-1.5,0-2.7,0.7-3.6,2c-0.9,1.4-1.4,3.4-1.4,5.9
				c0,2.5,0.5,4.5,1.4,5.9c0.9,1.4,2.1,2,3.6,2c1.3,0,2.4-0.4,3.1-1.3c0.7-0.8,1.3-2.1,1.6-3.7l-2.1-0.5c-0.2,1-0.4,1.6-0.8,2.1
				c-0.4,0.6-1,0.9-1.7,0.9c-0.9,0-1.7-0.5-2.2-1.4c-0.5-0.9-0.7-2.2-0.7-4.2c0-1.8,0.2-3.1,0.7-3.9c0.5-0.9,1.3-1.3,2.2-1.3
				c0.7,0,1.3,0.3,1.7,0.8c0.3,0.4,0.6,0.9,0.7,1.6l2-0.5c-0.3-1.4-0.9-2.5-1.5-3.2C244.7,206.2,243.7,205.9,242.4,205.9z
				 M228.5,222.6c-1.3,0-2.4-0.5-3.1-1.5c-0.7-1-1.1-2.2-1.1-3.7c0-1,0.2-1.8,0.5-2.6c0.3-0.8,0.8-1.4,1.4-1.8
				c0.6-0.4,1.4-0.7,2.5-1.1c1.4-0.4,2.1-0.7,2.6-0.9v-0.2c0-0.7-0.1-1.2-0.3-1.5c-0.2-0.2-0.6-0.4-1.3-0.4c-0.4,0-0.7,0.1-0.9,0.3
				c-0.2,0.2-0.4,0.5-0.6,1.3l-0.1,0.4l-3.6-0.9l0.1-0.4c0.3-1.7,0.9-2.9,1.7-3.7c0.8-0.8,2.1-1.2,3.6-1.2c1.4,0,2.5,0.3,3.2,0.8
				c0.7,0.5,1.2,1.1,1.5,1.9c0.3,0.8,0.4,2,0.4,4l0,4.9c0,1.4,0,2.4,0.1,3c0.1,0.6,0.3,1.3,0.5,2.1l0.2,0.6H232l-0.1-0.3
				c-0.1-0.2-0.1-0.5-0.2-0.9c-0.4,0.4-0.8,0.7-1.2,1C229.9,222.4,229.2,222.6,228.5,222.6z M229.7,208.2c0.9,0,1.6,0.2,2,0.7
				c0.4,0.4,0.5,1.1,0.5,2v0.7l-0.2,0.1c-0.6,0.3-1.6,0.7-3,1.1c-1,0.3-1.7,0.6-2.2,0.9c-0.5,0.3-0.9,0.8-1.1,1.4
				c-0.3,0.7-0.4,1.4-0.4,2.2c0,1.3,0.3,2.3,0.9,3.1c0.6,0.8,1.4,1.2,2.4,1.2c0.6,0,1.1-0.1,1.6-0.5c0.5-0.3,1-0.8,1.5-1.5l0.6-0.8
				l0.2,0.9c0,0.1,0.1,0.3,0.1,0.5c0.1,0.3,0.1,0.6,0.2,0.9h2c-0.2-0.6-0.3-1.1-0.4-1.6c-0.1-0.7-0.1-1.7-0.1-3.2l0-4.9
				c0-2.2-0.2-3.2-0.4-3.6c-0.2-0.6-0.6-1.1-1.2-1.5c-0.6-0.4-1.5-0.6-2.7-0.6c-1.3,0-2.3,0.3-3,1c-0.6,0.6-1.1,1.5-1.4,2.8l1.9,0.5
				c0.2-0.6,0.4-1,0.7-1.3C228.5,208.4,229.1,208.2,229.7,208.2z M209.5,222.6c-2.1,0-3.7-1-4.8-3c-0.8-1.5-1.2-3.4-1.2-5.7
				c0-2.7,0.5-4.9,1.5-6.5c1.1-1.6,2.4-2.5,4.1-2.5c1.8,0,3.3,0.9,4.4,2.6c1,1.6,1.5,4.2,1.5,7.5l0,0.4h-7.5
				c0.1,0.9,0.3,1.7,0.6,2.2c0.4,0.6,0.8,0.8,1.4,0.8c0.3,0,0.6-0.1,0.8-0.4c0.3-0.3,0.5-0.8,0.6-1.5l0.1-0.5l3.9,0.9l-0.1,0.4
				c-0.4,1.6-1.1,2.9-1.9,3.7C212,222.2,210.9,222.6,209.5,222.6z M209.2,205.9c-1.3,0-2.4,0.7-3.3,2c-0.9,1.4-1.4,3.4-1.4,6
				c0,2.1,0.4,3.9,1.1,5.3c0.9,1.7,2.2,2.5,4,2.5c1.1,0,2-0.4,2.8-1.1c0.7-0.7,1.2-1.6,1.6-2.9l-2.1-0.5c-0.2,0.7-0.4,1.1-0.7,1.5
				c-0.4,0.5-0.9,0.7-1.5,0.7c-0.8,0-1.6-0.4-2.1-1.3c-0.5-0.8-0.8-1.8-0.8-3.2l0-0.5h7.5c0-2.9-0.5-5.1-1.3-6.5
				C211.9,206.6,210.7,205.9,209.2,205.9z M197.8,222.6c-0.7,0-1.5-0.3-2.2-0.8c-0.3-0.2-0.6-0.5-0.9-0.9v1.3H191v-23h3.9v7.1
				c0.8-0.9,1.8-1.3,2.8-1.3c1.5,0,2.8,0.8,3.8,2.3c0.9,1.5,1.4,3.6,1.4,6.3c0,2.8-0.5,5-1.4,6.6
				C200.5,221.8,199.2,222.6,197.8,222.6z M194.6,219.2c0.4,0.8,0.9,1.5,1.5,1.9c0.6,0.4,1.1,0.6,1.6,0.6c1.2,0,2.1-0.7,3-2
				c0.9-1.4,1.3-3.4,1.3-6.1c0-2.5-0.4-4.5-1.3-5.8c-0.8-1.3-1.8-1.9-3-1.9c-1.1,0-2,0.7-2.9,2l-0.8,1.3v-9.1h-2.1v21.2h1.9v-1.9
				L194.6,219.2z M158.7,222.6c-2.1,0-3.7-1-4.8-3c-0.8-1.5-1.2-3.4-1.2-5.7c0-2.7,0.5-4.9,1.5-6.5c1.1-1.6,2.4-2.5,4.1-2.5
				c1.8,0,3.3,0.9,4.4,2.6c1,1.6,1.5,4.2,1.5,7.5l0,0.4h-7.5c0.1,0.9,0.3,1.7,0.6,2.2c0.4,0.6,0.8,0.8,1.4,0.8
				c0.3,0,0.6-0.1,0.8-0.4c0.3-0.3,0.5-0.8,0.6-1.5l0.1-0.5l3.9,0.9l-0.1,0.4c-0.4,1.6-1.1,2.9-1.9,3.7
				C161.2,222.2,160,222.6,158.7,222.6z M158.4,205.9c-1.3,0-2.4,0.7-3.3,2c-0.9,1.4-1.4,3.4-1.4,6c0,2.1,0.4,3.9,1.1,5.3
				c0.9,1.7,2.2,2.5,4,2.5c1.1,0,2-0.4,2.8-1.1c0.7-0.7,1.2-1.6,1.6-2.9l-2.1-0.5c-0.2,0.6-0.4,1.2-0.7,1.5
				c-0.4,0.5-0.9,0.7-1.5,0.7c-0.8,0-1.6-0.4-2.1-1.3c-0.5-0.8-0.8-1.8-0.8-3.2l0-0.5h7.5c0-2.9-0.5-5.1-1.3-6.5
				C161.1,206.6,159.9,205.9,158.4,205.9z M144.8,222.6c-1.5,0-2.7-0.8-3.7-2.4c-1-1.5-1.5-3.7-1.5-6.4c0-2.8,0.5-5,1.4-6.4
				c1-1.5,2.3-2.3,3.8-2.3c1,0,2,0.4,2.8,1.3v-7.1h3.9v23h-3.7V221c-0.3,0.3-0.6,0.6-0.9,0.9C146.3,222.4,145.5,222.6,144.8,222.6z
				 M144.8,205.9c-1.2,0-2.2,0.6-3,1.9c-0.9,1.3-1.3,3.3-1.3,6c0,2.6,0.4,4.6,1.3,6c0.8,1.4,1.8,2,3,2c0.5,0,1.1-0.2,1.6-0.6
				c0.6-0.4,1.1-1,1.5-1.9l0.9,0.2v1.9h1.9v-21.2h-2.1v9.1l-0.8-1.3C146.9,206.5,145.9,205.9,144.8,205.9z M125.5,222.6
				c-1.3,0-2.4-0.5-3.1-1.5c-0.7-1-1.1-2.2-1.1-3.7c0-1,0.2-1.8,0.5-2.6c0.3-0.8,0.8-1.4,1.4-1.8c0.6-0.4,1.4-0.7,2.5-1.1
				c1.4-0.4,2.1-0.7,2.6-0.9v-0.2c0-0.7-0.1-1.2-0.3-1.5c-0.2-0.2-0.6-0.4-1.3-0.4c-0.4,0-0.7,0.1-0.9,0.3c-0.2,0.2-0.4,0.5-0.6,1.3
				l-0.1,0.4l-3.6-0.9l0.1-0.4c0.3-1.6,0.9-2.9,1.7-3.7c0.8-0.8,2.1-1.2,3.6-1.2c1.4,0,2.5,0.3,3.2,0.8c0.7,0.5,1.2,1.1,1.5,1.9
				c0.3,0.8,0.4,2,0.4,4l0,4.9c0,1.4,0,2.4,0.1,3c0.1,0.6,0.3,1.3,0.5,2.1l0.2,0.6h-3.9l-0.1-0.3c-0.1-0.2-0.1-0.5-0.2-0.9
				c-0.4,0.4-0.8,0.7-1.2,1C127,222.4,126.3,222.6,125.5,222.6z M126.8,208.2c0.9,0,1.6,0.2,2,0.7c0.4,0.4,0.5,1.1,0.5,2v0.7
				l-0.2,0.1c-0.6,0.3-1.6,0.7-3,1.1c-1,0.3-1.7,0.6-2.2,0.9c-0.5,0.3-0.9,0.8-1.1,1.4c-0.3,0.7-0.4,1.4-0.4,2.2
				c0,1.3,0.3,2.3,0.9,3.1c0.6,0.8,1.4,1.2,2.4,1.2c0.6,0,1.1-0.1,1.6-0.5c0.5-0.3,1-0.8,1.5-1.5l0.6-0.8l0.2,0.9
				c0,0.1,0.1,0.3,0.1,0.5c0.1,0.3,0.1,0.6,0.2,0.9h2c-0.2-0.6-0.3-1.1-0.4-1.6c-0.1-0.7-0.1-1.7-0.1-3.2l0-4.9c0-1.8-0.1-3-0.4-3.6
				c-0.2-0.6-0.6-1.1-1.2-1.5c-0.6-0.4-1.5-0.6-2.7-0.6c-1.3,0-2.3,0.3-3,1c-0.6,0.6-1.1,1.5-1.4,2.8l1.9,0.5c0.2-0.6,0.4-1,0.7-1.3
				C125.6,208.4,126.1,208.2,126.8,208.2z M74.6,222.6c-1.5,0-2.7-0.8-3.7-2.4c-1-1.6-1.5-3.7-1.5-6.4c0-2.8,0.5-5,1.4-6.4
				c1-1.5,2.3-2.3,3.8-2.3c1,0,2,0.4,2.8,1.3v-7.1h3.9v23h-3.7V221c-0.3,0.3-0.6,0.6-0.9,0.9C76,222.4,75.3,222.6,74.6,222.6z
				 M74.6,205.9c-1.2,0-2.2,0.6-3,1.9c-0.8,1.3-1.3,3.3-1.3,6c0,2.6,0.4,4.6,1.3,6c0.8,1.4,1.8,2,3,2c0.6,0,1.1-0.2,1.6-0.6
				c0.6-0.4,1.1-1,1.5-1.9l0.9,0.2v1.9h1.9v-21.2h-2.1v9.1l-0.8-1.3C76.7,206.5,75.7,205.9,74.6,205.9z M63,222.6
				c-2.1,0-3.7-1-4.8-3c-0.8-1.5-1.2-3.4-1.2-5.7c0-2.7,0.5-4.9,1.5-6.5c1.1-1.6,2.4-2.5,4.1-2.5c1.8,0,3.3,0.9,4.4,2.6
				c1,1.7,1.5,4.1,1.5,7.5l0,0.4h-7.5c0.1,0.9,0.3,1.7,0.6,2.2c0.4,0.6,0.8,0.8,1.3,0.8c0.3,0,0.6-0.1,0.8-0.4
				c0.3-0.3,0.5-0.8,0.6-1.5l0.1-0.5l3.9,0.9l-0.1,0.4c-0.4,1.6-1.1,2.9-1.9,3.7C65.5,222.2,64.4,222.6,63,222.6z M62.7,205.9
				c-1.3,0-2.4,0.7-3.3,2c-0.9,1.4-1.4,3.4-1.4,6c0,2.1,0.4,3.9,1.1,5.3c0.9,1.7,2.2,2.5,4,2.5c1.1,0,2-0.4,2.8-1.1
				c0.7-0.7,1.2-1.6,1.6-2.9l-2.1-0.5c-0.2,0.6-0.4,1.2-0.7,1.5c-0.4,0.5-0.9,0.7-1.5,0.7c-0.8,0-1.6-0.4-2.1-1.3
				c-0.5-0.8-0.8-1.8-0.8-3.2l0-0.5h7.5c0-2.9-0.5-5.1-1.3-6.5C65.4,206.6,64.2,205.9,62.7,205.9z M461.5,222.3h-3.9v-9.6
				c0-1.9-0.1-2.6-0.3-2.9c-0.3-0.6-0.6-0.6-0.9-0.6c-0.3,0-0.6,0.1-0.9,0.4c-0.3,0.3-0.5,0.8-0.7,1.4c-0.2,0.7-0.2,1.8-0.2,3.2v8.1
				h-3.9V213c0-1.9-0.1-2.6-0.1-2.9c-0.1-0.4-0.2-0.6-0.4-0.8c-0.3-0.3-1-0.3-1.5,0.2c-0.3,0.3-0.5,0.7-0.7,1.3
				c-0.2,0.6-0.2,1.7-0.2,3.2v8.2H444v-16.9h3.7v1.2c0.9-1,1.9-1.6,3.1-1.6c0.8,0,1.6,0.2,2.2,0.7c0.4,0.3,0.8,0.8,1.1,1.3
				c0.4-0.6,0.8-1,1.3-1.3c0.6-0.5,1.4-0.7,2.1-0.7c0.9,0,1.7,0.3,2.4,0.8c0.6,0.5,1.1,1.3,1.4,2.3c0.2,0.7,0.3,1.9,0.3,3.5V222.3z
				 M458.5,221.3h2.1v-9.8c0-1.5-0.1-2.6-0.3-3.2c-0.3-0.8-0.6-1.5-1.1-1.9c-0.9-0.7-2.3-0.9-3.4-0.1c-0.5,0.4-1,1-1.5,1.8l-0.5,0.8
				l-0.3-0.9c-0.3-0.8-0.7-1.4-1.2-1.7c-0.5-0.4-1-0.5-1.6-0.5c-1.2,0-2.2,0.8-3.1,2.3l-0.8,1.5v-3.4h-1.9v15.1h2.1V214
				c0-1.6,0.1-2.7,0.3-3.4c0.2-0.8,0.5-1.3,0.9-1.7c0.8-0.8,2.1-0.9,2.8-0.2c0.3,0.3,0.5,0.7,0.6,1.2c0.1,0.5,0.2,1.5,0.2,3.1v8.3
				h2.1v-7.2c0-1.5,0.1-2.7,0.3-3.4c0.2-0.8,0.5-1.4,0.9-1.8c0.5-0.4,1-0.7,1.5-0.7c0.5,0,1.2,0.2,1.7,1.2c0.2,0.5,0.3,1.6,0.3,3.3
				V221.3z M354.9,222.3H351v-8.6c0-2.1-0.1-2.9-0.2-3.2c-0.1-0.4-0.3-0.7-0.5-1c-0.5-0.5-1.2-0.4-1.8,0.2c-0.3,0.4-0.6,0.8-0.7,1.4
				c-0.1,0.6-0.2,1.8-0.2,3.6v7.7h-3.9v-16.9h3.7v1.3c0.9-1.1,2-1.7,3.3-1.7c0.7,0,1.4,0.2,2,0.6c0.6,0.4,1.1,0.9,1.4,1.5
				c0.3,0.6,0.5,1.2,0.6,1.9c0.1,0.7,0.2,1.6,0.2,2.9V222.3z M351.9,221.3h2.1v-9.5c0-1.2-0.1-2.1-0.2-2.8c-0.1-0.6-0.3-1.2-0.5-1.6
				c-0.2-0.5-0.6-0.8-1.1-1.1c-0.5-0.3-1-0.4-1.6-0.4c-1.3,0-2.4,0.8-3.3,2.5l-0.8-0.2v-1.9h-1.9v15.1h2.1v-6.8
				c0-1.8,0.1-3.1,0.2-3.8c0.2-0.7,0.5-1.3,1-1.8c0.9-0.9,2.2-1,3.1-0.2c0.4,0.3,0.6,0.8,0.7,1.4c0.1,0.6,0.2,1.7,0.2,3.5V221.3z
				 M328.2,222.3h-3.9v-23h3.9V222.3z M325.3,221.3h2.1v-21.2h-2.1V221.3z M306.3,222.3h-3.9v-16.9h3.7v0.9c0.2-0.3,0.4-0.5,0.5-0.6
				c1.1-1,2.6-0.8,3.9,0.3l0.2,0.2l-1.2,4.7l-0.6-0.5c-0.8-0.7-1.4-0.7-1.8-0.2c-0.2,0.2-0.4,0.6-0.6,1.6c-0.2,0.8-0.2,2.6-0.2,5.3
				V222.3z M303.3,221.3h2.1v-4.5c0-2.8,0.1-4.6,0.3-5.5c0.2-0.9,0.4-1.6,0.8-2c0.6-0.7,1.6-0.9,2.5-0.3l0.7-2.7
				c-0.8-0.6-1.7-0.8-2.4-0.1c-0.2,0.2-0.6,0.7-1.2,2l-0.9-0.2v-1.8h-1.9V221.3z M292.1,222.3h-4v-23h5.5c2,0,3.3,0.1,3.9,0.4
				c1,0.4,1.8,1.2,2.5,2.4c0.6,1.2,1,2.7,1,4.5c0,1.4-0.2,2.6-0.6,3.6c-0.4,1-0.9,1.8-1.4,2.3c-0.6,0.6-1.2,1-1.8,1.2
				c-0.8,0.2-1.9,0.3-3.4,0.3h-1.6V222.3z M288.9,221.3h2.2V213h2.5c1.4,0,2.4-0.1,3.1-0.3c0.5-0.1,1-0.5,1.4-0.9
				c0.5-0.5,0.9-1.2,1.2-2c0.3-0.9,0.5-2,0.5-3.3c0-1.7-0.3-3.1-0.8-4.1c-0.5-1-1.2-1.7-2-2c-0.4-0.1-1.3-0.3-3.6-0.3h-4.6V221.3z
				 M279.8,222.3h-3.9v-8.6c0-2.1-0.1-2.9-0.2-3.2c-0.1-0.4-0.3-0.7-0.5-1c-0.5-0.5-1.2-0.4-1.8,0.2c-0.3,0.3-0.6,0.8-0.7,1.4
				c-0.1,0.6-0.2,1.8-0.2,3.6v7.7h-3.9v-16.9h3.7v1.3c0.9-1.1,2-1.7,3.3-1.7c0.7,0,1.4,0.2,2,0.6c0.6,0.4,1.1,0.9,1.4,1.5
				c0.3,0.6,0.5,1.2,0.6,1.9c0.1,0.7,0.2,1.6,0.2,2.9V222.3z M276.8,221.3h2.1v-9.5c0-1.2-0.1-2.1-0.2-2.8c-0.1-0.6-0.3-1.2-0.5-1.6
				c-0.2-0.5-0.6-0.8-1.1-1.1c-0.5-0.3-1-0.4-1.6-0.4c-1.3,0-2.4,0.8-3.3,2.5l-0.8-0.2v-1.9h-1.9v15.1h2.1v-6.8
				c0-1.8,0.1-3.1,0.2-3.8c0.2-0.7,0.5-1.4,1-1.8c0.9-0.9,2.2-1,3.1-0.2c0.3,0.3,0.6,0.8,0.7,1.4c0.1,0.6,0.2,1.7,0.2,3.5V221.3z
				 M253.2,222.3h-3.9v-16.9h3.9V222.3z M250.2,221.3h2.1v-15.1h-2.1V221.3z M220.3,222.3h-3.9v-16.9h3.7v0.9
				c0.2-0.3,0.4-0.5,0.5-0.6c1.1-1,2.6-0.8,3.9,0.3l0.2,0.2l-1.2,4.7l-0.6-0.5c-0.8-0.7-1.4-0.7-1.8-0.2c-0.2,0.3-0.4,0.8-0.6,1.6
				c-0.2,0.8-0.2,2.6-0.2,5.3V222.3z M217.3,221.3h2.1v-4.5c0-2.8,0.1-4.6,0.3-5.5c0.2-1,0.4-1.6,0.8-2c0.6-0.7,1.6-0.9,2.5-0.3
				l0.7-2.7c-0.8-0.6-1.7-0.8-2.5-0.1c-0.2,0.2-0.6,0.7-1.2,2l-0.9-0.2v-1.8h-1.9V221.3z M189,222.3h-3.9v-16.9h3.9V222.3z
				 M186,221.3h2.1v-15.1H186V221.3z M183.8,222.3h-11.9v-22.8h4.1v18.2h7.8V222.3z M172.8,221.3h10.1v-2.8H175v-18.2h-2.2V221.3z
				 M120,222.3h-3.9v-8.6c0-2.1-0.1-2.9-0.2-3.2c-0.1-0.4-0.3-0.7-0.5-1c-0.5-0.5-1.2-0.4-1.8,0.2c-0.3,0.3-0.6,0.8-0.7,1.4
				c-0.1,0.6-0.2,1.8-0.2,3.6v7.7h-3.9v-16.9h3.7v1.3c0.9-1.1,2-1.7,3.3-1.7c0.7,0,1.4,0.2,2,0.6c0.6,0.4,1.1,0.9,1.4,1.5
				c0.3,0.6,0.5,1.2,0.6,1.9c0.1,0.7,0.2,1.6,0.2,2.9V222.3z M117,221.3h2.1v-9.5c0-1.2-0.1-2.1-0.2-2.8c-0.1-0.6-0.3-1.2-0.5-1.6
				c-0.2-0.5-0.6-0.8-1.1-1.1c-0.5-0.3-1-0.4-1.6-0.4c-1.3,0-2.4,0.8-3.3,2.5l-0.8-0.2v-1.9h-1.9v15.1h2.1v-6.8
				c0-1.8,0.1-3.1,0.2-3.8c0.2-0.7,0.5-1.4,1-1.8c0.9-0.9,2.2-1,3.1-0.2c0.4,0.3,0.6,0.8,0.7,1.4c0.1,0.6,0.2,1.7,0.2,3.5V221.3z
				 M106.6,222.3h-3.9v-16.9h3.9V222.3z M103.7,221.3h2.1v-15.1h-2.1V221.3z M87.3,222.3h-3.9v-16.9h3.9V222.3z M84.3,221.3h2.1
				v-15.1h-2.1V221.3z M54.9,222.3H51v-12.7h-1.7v-4.2H51v-0.8c0-1.4,0.1-2.4,0.3-3.1c0.2-0.8,0.7-1.4,1.3-1.8
				c1.2-0.9,3.3-0.9,5-0.1l0.3,0.1l-0.5,3.8l-0.5-0.2c-0.4-0.1-0.8-0.2-1.2-0.2c-0.4,0-0.5,0.1-0.6,0.2c-0.1,0.1-0.2,0.4-0.2,1.4
				v0.7h2.2v4.2h-2.2V222.3z M51.9,221.3H54v-12.7h2.2v-2.4H54v-1.6c0-0.9,0.1-1.5,0.4-1.9c0.4-0.6,1.4-0.7,2.3-0.5l0.3-2.1
				c-1.4-0.5-2.9-0.5-3.8,0.2c-0.5,0.4-0.8,0.8-1,1.4c-0.2,0.6-0.3,1.6-0.3,2.9v1.7h-1.7v2.4h1.7V221.3z M48.5,222.3h-3.9v-16.9h3.9
				V222.3z M45.5,221.3h2.1v-15.1h-2.1V221.3z M42.2,222.3h-3.9l-5.5-12.7v12.7H29v-23h3.8l5.6,13v-13h3.8V222.3z M38.9,221.3h2.4
				v-21.2h-2v14.3l-0.9,0.2l-6.3-14.5h-2.3v21.2h2v-14l0.9-0.2L38.9,221.3z M400.1,219.6c-0.6,0-1.2-0.3-1.6-0.8
				c-0.4-0.5-0.6-1.1-0.6-1.8c0-0.7,0.2-1.3,0.7-1.8c0.3-0.3,0.9-0.6,1.8-0.9c0.8-0.2,1.4-0.5,1.8-0.6l0.6-0.3v1.6
				c0,1.1,0,1.8-0.1,2.2c-0.1,0.6-0.4,1.2-0.8,1.6C401.4,219.3,400.7,219.6,400.1,219.6z M402,214.8c-0.3,0.1-0.8,0.3-1.2,0.4
				c-1,0.3-1.3,0.5-1.5,0.6c-0.3,0.3-0.4,0.7-0.4,1.2c0,0.5,0.1,0.9,0.4,1.3c0.5,0.7,1.3,0.6,2-0.2c0.3-0.3,0.5-0.7,0.6-1.2
				c0.1-0.3,0.1-1,0.1-2V214.8z M374.7,219.6c-0.6,0-1.2-0.3-1.6-0.8c-0.4-0.5-0.6-1.1-0.6-1.8c0-0.7,0.2-1.3,0.7-1.8
				c0.3-0.3,0.9-0.6,1.8-0.9c0.8-0.2,1.4-0.5,1.8-0.6l0.6-0.3v1.6c0,1.1,0,1.8-0.1,2.2c-0.1,0.6-0.4,1.2-0.8,1.6
				C375.9,219.3,375.3,219.6,374.7,219.6z M376.6,214.8c-0.3,0.1-0.8,0.3-1.2,0.4c-1,0.3-1.3,0.5-1.5,0.6c-0.3,0.3-0.4,0.7-0.4,1.2
				c0,0.5,0.1,0.9,0.4,1.3c0.5,0.7,1.3,0.6,2-0.2c0.3-0.3,0.5-0.7,0.6-1.2c0.1-0.3,0.1-1,0.1-2V214.8z M229.4,219.6
				c-0.6,0-1.2-0.3-1.6-0.8c-0.4-0.5-0.6-1.1-0.6-1.8c0-0.7,0.2-1.3,0.7-1.8c0.3-0.3,0.9-0.6,1.8-0.9c0.8-0.2,1.4-0.5,1.8-0.6
				l0.6-0.3v1.6c0,1.1,0,1.8-0.1,2.2c-0.1,0.6-0.4,1.2-0.8,1.6C230.7,219.3,230,219.6,229.4,219.6z M231.3,214.8
				c-0.3,0.1-0.8,0.3-1.2,0.4c-1,0.3-1.3,0.5-1.5,0.6c-0.3,0.3-0.4,0.7-0.4,1.2c0,0.5,0.1,0.9,0.4,1.3c0.5,0.7,1.3,0.6,2-0.2
				c0.3-0.3,0.5-0.7,0.6-1.2c0.1-0.3,0.1-1,0.1-2V214.8z M126.4,219.6c-0.6,0-1.2-0.3-1.6-0.8c-0.4-0.5-0.6-1.1-0.6-1.8
				c0-0.7,0.2-1.3,0.7-1.8c0.3-0.3,0.9-0.6,1.8-0.9c0.8-0.2,1.4-0.5,1.8-0.6l0.6-0.3v1.6c0,1.1,0,1.8-0.1,2.2
				c-0.1,0.6-0.4,1.2-0.8,1.6C127.7,219.3,127.1,219.6,126.4,219.6z M128.3,214.8c-0.3,0.1-0.8,0.3-1.2,0.4c-1,0.3-1.3,0.5-1.5,0.6
				c-0.3,0.3-0.4,0.7-0.4,1.2c0,0.5,0.1,0.9,0.4,1.3c0.5,0.7,1.3,0.6,2-0.2c0.3-0.3,0.5-0.7,0.6-1.2c0.1-0.3,0.1-1,0.1-2V214.8z
				 M387.8,219.3c-1.1,0-1.9-0.6-2.4-1.9c-0.4-0.8-0.5-2.1-0.5-3.9c0-1.7,0.3-2.9,0.8-3.8c0.6-0.9,1.3-1.4,2.2-1.4
				c0.9,0,1.6,0.5,2.2,1.4c0.5,0.9,0.8,2.3,0.8,4.2c0,1.7-0.3,3-0.8,3.9C389.4,218.8,388.7,219.3,387.8,219.3z M387.8,209.1
				c-0.5,0-1,0.3-1.4,1c-0.4,0.7-0.7,1.8-0.7,3.3c0,1.6,0.2,2.8,0.5,3.5c0.4,0.9,0.9,1.4,1.6,1.4c0.5,0,1-0.3,1.4-1
				c0.4-0.8,0.7-1.9,0.7-3.5c0-1.7-0.2-3-0.6-3.7C388.8,209.4,388.4,209.1,387.8,209.1z M197.1,219.3c-1,0-1.9-0.7-2.5-2
				c-0.4-0.9-0.6-2.1-0.6-3.9c0-1.7,0.3-3,0.8-3.8c0.6-0.9,1.3-1.4,2.2-1.4c0.9,0,1.6,0.5,2.2,1.4c0.5,0.9,0.8,2.2,0.8,4.2
				c0,1.8-0.2,3.1-0.8,4C198.6,218.8,197.9,219.3,197.1,219.3z M196.9,209.1c-0.5,0-1,0.3-1.4,1c-0.4,0.7-0.6,1.8-0.6,3.4
				c0,1.6,0.2,2.8,0.5,3.5c0.4,1,1,1.4,1.7,1.4c0.5,0,0.9-0.3,1.3-1c0.4-0.7,0.6-1.9,0.6-3.6c0-1.7-0.2-3-0.6-3.7
				C198,209.4,197.5,209.1,196.9,209.1z M145.6,219.3c-0.7,0-1.7-0.3-2.4-1.9c-0.4-0.8-0.5-2.1-0.5-3.9c0-1.7,0.3-2.9,0.8-3.8
				c0.6-0.9,1.3-1.4,2.2-1.4c0.9,0,1.6,0.5,2.2,1.4c0.5,0.9,0.8,2.3,0.8,4.2c0,1.7-0.3,3-0.8,3.9
				C147.2,218.8,146.5,219.3,145.6,219.3z M145.6,209.1c-0.5,0-1,0.3-1.4,1c-0.4,0.7-0.7,1.9-0.7,3.4c0,1.6,0.2,2.8,0.5,3.5
				c0.4,0.9,0.9,1.4,1.6,1.4c0.5,0,1-0.3,1.4-1c0.4-0.8,0.7-1.9,0.7-3.5c0-1.7-0.2-3-0.6-3.7C146.6,209.4,146.2,209.1,145.6,209.1z
				 M75.4,219.3c-1.1,0-1.9-0.6-2.4-1.9c-0.4-0.8-0.5-2.1-0.5-3.9c0-1.7,0.3-2.9,0.8-3.8c0.6-0.9,1.3-1.4,2.2-1.4
				c0.9,0,1.6,0.5,2.2,1.4c0.5,0.9,0.8,2.3,0.8,4.2c0,1.7-0.3,3-0.8,3.9C77,218.8,76.3,219.3,75.4,219.3z M75.4,209.1
				c-0.5,0-1,0.3-1.4,1c-0.4,0.7-0.7,1.9-0.7,3.4c0,1.6,0.2,2.8,0.5,3.5c0.4,0.9,0.9,1.4,1.6,1.4c0.5,0,1-0.3,1.4-1
				c0.4-0.8,0.7-1.9,0.7-3.5c0-1.7-0.2-3-0.6-3.7C76.4,209.4,76,209.1,75.4,209.1z M95.4,219.2c-0.9,0-1.6-0.5-2.2-1.5
				c-0.5-0.9-0.8-2.3-0.8-4.2c0-1.7,0.3-2.9,0.8-3.8c0.6-0.9,1.3-1.4,2.2-1.4c0.9,0,1.6,0.5,2.2,1.4c0.5,0.9,0.8,2.2,0.8,4
				c0,1.9-0.2,3.2-0.8,4.1C96.9,218.8,96.2,219.2,95.4,219.2z M95.3,209.2c-0.6,0-1,0.3-1.4,1c-0.4,0.7-0.7,1.8-0.7,3.3
				c0,1.7,0.2,3,0.7,3.8c0.8,1.4,2,1.4,2.8,0.1c0.4-0.7,0.6-1.9,0.6-3.7c0-1.6-0.2-2.8-0.7-3.5C96.3,209.5,95.8,209.2,95.3,209.2z
				 M336,219.2c-0.9,0-1.7-0.5-2.4-1.5c-0.6-0.9-0.9-2.2-0.9-3.9c0-1.7,0.3-3,0.9-3.9c0.6-1,1.4-1.5,2.4-1.5s1.7,0.5,2.3,1.5
				c0.6,0.9,0.9,2.2,0.9,3.9c0,1.7-0.3,3-0.9,3.9C337.7,218.7,336.9,219.2,336,219.2z M336,209.3c-0.6,0-1.1,0.3-1.6,1.1
				c-0.5,0.8-0.7,1.9-0.7,3.4c0,1.5,0.2,2.6,0.7,3.4c0.9,1.4,2.3,1.4,3.2,0c0.5-0.8,0.7-1.9,0.7-3.4c0-1.5-0.2-2.6-0.7-3.4
				C337.1,209.7,336.6,209.3,336,209.3z M316.6,219.2c-0.9,0-1.7-0.5-2.4-1.5c-0.6-0.9-0.9-2.2-0.9-3.9c0-1.7,0.3-3,0.9-3.9
				c0.6-1,1.4-1.5,2.3-1.5c0.9,0,1.7,0.5,2.3,1.5c0.6,0.9,0.9,2.2,0.9,3.9c0,1.7-0.3,3-0.9,3.9C318.4,218.7,317.6,219.2,316.6,219.2
				z M316.6,209.3c-0.6,0-1.1,0.3-1.6,1.1c-0.5,0.8-0.7,1.9-0.7,3.4c0,1.5,0.2,2.6,0.7,3.4c0.9,1.4,2.3,1.4,3.2,0
				c0.5-0.8,0.7-1.9,0.7-3.4c0-1.5-0.2-2.6-0.7-3.4C317.8,209.7,317.3,209.3,316.6,209.3z M260.9,219.2c-0.9,0-1.7-0.5-2.4-1.5
				c-0.6-0.9-0.9-2.2-0.9-3.9c0-1.7,0.3-3,0.9-3.9c0.6-1,1.4-1.5,2.4-1.5c0.9,0,1.7,0.5,2.3,1.5c0.6,0.9,0.9,2.2,0.9,3.9
				c0,1.7-0.3,3-0.9,3.9C262.7,218.7,261.9,219.2,260.9,219.2z M260.9,209.3c-0.6,0-1.1,0.3-1.6,1.1c-0.5,0.8-0.7,1.9-0.7,3.4
				c0,1.5,0.2,2.6,0.7,3.4c0.9,1.4,2.3,1.4,3.2,0c0.5-0.8,0.7-1.9,0.7-3.4c0-1.5-0.2-2.6-0.7-3.4
				C262.1,209.7,261.6,209.3,260.9,209.3z M430.9,219.1c-0.5,0-0.9-0.2-1.3-0.6c-0.3-0.4-0.6-1.1-0.8-2.2c-0.2-1-0.3-2.8-0.3-5.4
				c0-2.6,0.1-4.5,0.3-5.6c0.2-0.9,0.4-1.6,0.8-2c0.7-0.9,1.9-0.9,2.6,0c0.3,0.4,0.6,1.1,0.8,2.2c0.2,1,0.3,2.8,0.3,5.4
				c0,2.6-0.1,4.5-0.3,5.6c-0.2,0.9-0.4,1.6-0.8,2C431.9,218.9,431.4,219.1,430.9,219.1z M430.9,203.6c-0.2,0-0.4,0.1-0.6,0.3
				c-0.2,0.2-0.4,0.6-0.6,1.5c-0.2,1.1-0.3,2.9-0.3,5.5c0,2.5,0.1,4.3,0.3,5.3c0.2,1.2,0.5,1.6,0.6,1.7c0.3,0.3,0.5,0.3,0.6,0.3
				c0.1,0,0.4,0,0.6-0.3c0.2-0.2,0.4-0.6,0.6-1.5c0.2-1.1,0.3-2.9,0.3-5.4c0-2.5-0.1-4.3-0.3-5.3c-0.2-1.1-0.4-1.6-0.6-1.7
				C431.3,203.6,431.1,203.6,430.9,203.6z M468.9,218.8c-0.8,0-1.6-0.5-2.1-1.4c-0.5-0.9-0.8-2.2-0.8-4c0-1.7,0.2-3,0.8-3.8
				c0.6-0.9,1.3-1.4,2.2-1.4c0.9,0,1.7,0.5,2.2,1.4c0.5,0.9,0.8,2.2,0.8,3.9c0,1.7-0.3,3-0.8,3.8
				C470.5,218.3,469.8,218.8,468.9,218.8z M468.9,209.1c-0.5,0-1,0.3-1.4,1c-0.4,0.7-0.6,1.9-0.6,3.4c0,1.6,0.2,2.8,0.6,3.5
				c0.8,1.4,2,1.2,2.8,0c0.5-0.7,0.7-1.9,0.7-3.4c0-1.6-0.2-2.7-0.7-3.5C470,209.4,469.5,209.1,468.9,209.1z M362.3,218.8
				c-0.8,0-1.6-0.5-2.1-1.4c-0.5-0.9-0.8-2.2-0.8-4c0-1.7,0.2-3,0.8-3.8c0.6-0.9,1.3-1.4,2.2-1.4c0.9,0,1.6,0.5,2.2,1.4
				c0.5,0.9,0.8,2.2,0.8,3.9c0,1.7-0.3,3-0.8,3.8C363.9,218.3,363.2,218.8,362.3,218.8z M362.3,209.1c-0.5,0-1,0.3-1.4,1
				c-0.4,0.7-0.6,1.9-0.6,3.4c0,1.6,0.2,2.8,0.6,3.5c0.8,1.4,2,1.2,2.8,0c0.5-0.7,0.7-1.9,0.7-3.4c0-1.6-0.2-2.7-0.7-3.5
				C363.4,209.4,362.9,209.1,362.3,209.1z M212.1,212.9h-5.4l0-0.4c0-1.2,0.2-2.2,0.7-3c0.5-0.8,1.2-1.2,2-1.2
				c0.8,0,1.4,0.4,1.9,1.2c0.5,0.7,0.7,1.7,0.7,3L212.1,212.9z M207.6,212h3.5c-0.1-0.9-0.3-1.6-0.6-2.1c-0.7-1.1-1.8-1-2.4,0
				C207.8,210.4,207.7,211.1,207.6,212z M161.2,212.9h-5.4l0-0.4c0-1.2,0.2-2.2,0.7-3c0.5-0.8,1.2-1.2,2-1.2c0.8,0,1.4,0.4,1.9,1.2
				c0.5,0.7,0.7,1.7,0.7,3L161.2,212.9z M156.8,212h3.5c-0.1-0.9-0.3-1.6-0.6-2.1c-0.7-1.1-1.8-1-2.4,0
				C157,210.4,156.8,211.1,156.8,212z M65.6,212.9h-5.4l0-0.4c0-1.2,0.2-2.2,0.7-3c0.5-0.8,1.2-1.2,2-1.2c0.8,0,1.4,0.4,1.9,1.2
				c0.5,0.7,0.7,1.7,0.7,3L65.6,212.9z M61.1,212h3.5c-0.1-0.9-0.3-1.6-0.6-2.1c-0.3-0.5-0.7-0.8-1.2-0.8c-0.5,0-0.9,0.3-1.2,0.8
				C61.3,210.4,61.1,211.1,61.1,212z M293.4,210.2h-2.2V203h2c1.2,0,2,0.1,2.4,0.2c0.6,0.2,1.1,0.5,1.5,1.2c0.4,0.6,0.6,1.3,0.6,2.2
				c0,0.7-0.1,1.4-0.4,1.9c-0.3,0.6-0.7,1-1.2,1.3C295.6,210,294.7,210.2,293.4,210.2z M292.1,209.3h1.3c1.5,0,2-0.2,2.3-0.3
				c0.3-0.2,0.6-0.5,0.8-0.9c0.2-0.4,0.3-0.9,0.3-1.5c0-0.7-0.1-1.3-0.4-1.7c-0.3-0.4-0.6-0.7-1-0.8c-0.3-0.1-1.1-0.1-2.2-0.1h-1.1
				V209.3z M261.6,204.3h-2.8l1.8-5.4h4.5L261.6,204.3z M260,203.4h1l2.3-3.6h-2.2L260,203.4z M253.2,204.1h-3.9v-4.8h3.9V204.1z
				 M250.2,203.2h2.1v-3h-2.1V203.2z M189,204.1h-3.9v-4.8h3.9V204.1z M186,203.2h2.1v-3H186V203.2z M106.6,204.1h-3.9v-4.8h3.9
				V204.1z M103.7,203.2h2.1v-3h-2.1V203.2z M87.3,204.1h-3.9v-4.8h3.9V204.1z M84.3,203.2h2.1v-3h-2.1V203.2z M48.5,204.1h-3.9
				v-4.8h3.9V204.1z M45.5,203.2h2.1v-3h-2.1V203.2z"/>
		</g>
		<g>
			<path d="M466.5,213.5c0,1.7,0.2,2.9,0.7,3.7c0.5,0.8,1,1.2,1.7,1.2c0.7,0,1.3-0.4,1.9-1.2c0.5-0.8,0.8-2,0.8-3.6
				c0-1.7-0.2-2.9-0.7-3.7c-0.5-0.8-1.1-1.2-1.8-1.2c-0.7,0-1.3,0.4-1.8,1.2C466.7,210.6,466.5,211.8,466.5,213.5 M463.8,222.9
				l3.4,0.6c0.1,0.6,0.2,1,0.4,1.2c0.3,0.3,0.7,0.5,1.3,0.5c0.8,0,1.4-0.2,1.8-0.5c0.3-0.2,0.5-0.6,0.6-1.1c0.1-0.3,0.1-1,0.1-1.9
				v-2.3c-0.9,1.7-2,2.6-3.4,2.6c-1.5,0-2.7-0.9-3.6-2.7c-0.7-1.4-1-3.2-1-5.4c0-2.7,0.5-4.7,1.4-6.2c0.9-1.4,2-2.1,3.4-2.1
				c1.4,0,2.5,0.9,3.5,2.6v-2.2h2.8v14.4c0,1.9-0.1,3.3-0.3,4.2c-0.2,0.9-0.5,1.7-0.9,2.2c-0.4,0.5-0.9,0.9-1.6,1.3
				c-0.7,0.3-1.5,0.5-2.5,0.5c-1.9,0-3.3-0.5-4.1-1.4c-0.8-0.9-1.2-2.1-1.2-3.5C463.8,223.2,463.8,223.1,463.8,222.9 M444.5,205.8
				h2.8v2.2c1-1.7,2.2-2.5,3.5-2.5c0.7,0,1.4,0.2,1.9,0.6c0.5,0.4,1,1.1,1.3,1.9c0.5-0.9,1-1.5,1.6-1.9c0.6-0.4,1.2-0.6,1.8-0.6
				c0.8,0,1.5,0.2,2.1,0.7c0.6,0.5,1,1.2,1.3,2.1c0.2,0.7,0.3,1.8,0.3,3.3v10.2h-3v-9.2c0-1.6-0.1-2.6-0.3-3.1
				c-0.3-0.6-0.7-0.9-1.3-0.9c-0.4,0-0.8,0.2-1.2,0.5c-0.4,0.4-0.6,0.9-0.8,1.6c-0.2,0.7-0.2,1.8-0.2,3.3v7.7h-3V213
				c0-1.6-0.1-2.6-0.2-3c-0.1-0.5-0.3-0.8-0.5-1c-0.2-0.2-0.5-0.3-0.9-0.3c-0.5,0-0.9,0.2-1.2,0.5c-0.4,0.4-0.6,0.9-0.8,1.5
				c-0.2,0.7-0.2,1.8-0.2,3.3v7.8h-3V205.8z M430.9,203.1c-0.4,0-0.7,0.2-1,0.5c-0.3,0.3-0.5,0.9-0.7,1.8c-0.2,1.1-0.3,2.9-0.3,5.5
				c0,2.6,0.1,4.4,0.3,5.3c0.2,1,0.4,1.6,0.7,1.9c0.3,0.3,0.6,0.5,1,0.5c0.4,0,0.7-0.2,1-0.5c0.3-0.3,0.5-0.9,0.7-1.8
				c0.2-1.1,0.3-2.9,0.3-5.5c0-2.6-0.1-4.4-0.3-5.3c-0.2-1-0.4-1.6-0.7-1.9C431.6,203.3,431.3,203.1,430.9,203.1 M430.9,199.6
				c1.5,0,2.7,0.8,3.5,2.3c1,1.8,1.5,4.8,1.5,9c0,4.2-0.5,7.2-1.5,9c-0.8,1.5-2,2.3-3.5,2.3c-1.5,0-2.7-0.8-3.7-2.5
				c-0.9-1.7-1.4-4.6-1.4-8.8c0-4.2,0.5-7.2,1.5-9C428.2,200.4,429.4,199.6,430.9,199.6 M413.7,215.9l2.9-0.5c0.1,1,0.3,1.8,0.7,2.4
				c0.4,0.6,0.9,0.8,1.5,0.8c0.6,0,1.1-0.3,1.6-1c0.4-0.7,0.6-1.6,0.6-2.7c0-1.1-0.2-1.9-0.6-2.5c-0.4-0.6-0.9-0.9-1.5-0.9
				c-0.4,0-0.8,0.1-1.4,0.3l0.3-3.4c0.8,0,1.4-0.2,1.9-0.7c0.4-0.5,0.6-1.2,0.6-2.1c0-0.7-0.2-1.3-0.5-1.8c-0.3-0.4-0.7-0.7-1.2-0.7
				c-0.5,0-0.9,0.3-1.3,0.8c-0.4,0.5-0.6,1.2-0.7,2.2l-2.8-0.7c0.2-1.3,0.5-2.4,0.9-3.2c0.4-0.8,0.9-1.4,1.6-1.9
				c0.7-0.5,1.5-0.7,2.3-0.7c1.5,0,2.6,0.7,3.5,2c0.7,1.1,1.1,2.3,1.1,3.7c0,1.9-0.7,3.5-2.2,4.6c0.9,0.3,1.6,0.9,2.1,1.8
				c0.5,0.9,0.8,2.1,0.8,3.4c0,1.9-0.5,3.6-1.5,5c-1,1.4-2.2,2.1-3.7,2.1c-1.4,0-2.6-0.6-3.5-1.7
				C414.3,219.3,413.8,217.8,413.7,215.9 M402.5,214.1c-0.4,0.2-1,0.4-1.8,0.6c-0.8,0.3-1.4,0.5-1.6,0.7c-0.4,0.4-0.6,0.9-0.6,1.5
				c0,0.6,0.2,1.1,0.5,1.5c0.3,0.4,0.7,0.6,1.2,0.6c0.5,0,1.1-0.3,1.5-0.8c0.4-0.4,0.6-0.8,0.7-1.4c0.1-0.4,0.1-1,0.1-2.1V214.1z
				 M398.5,210.7l-2.7-0.7c0.3-1.5,0.8-2.7,1.6-3.4c0.7-0.7,1.9-1.1,3.3-1.1c1.3,0,2.3,0.2,3,0.7c0.6,0.4,1.1,1,1.4,1.7
				c0.3,0.7,0.4,1.9,0.4,3.8l0,4.9c0,1.4,0,2.4,0.1,3.1c0.1,0.7,0.3,1.4,0.5,2.1h-3c-0.1-0.3-0.2-0.7-0.3-1.3c0-0.3-0.1-0.4-0.1-0.5
				c-0.5,0.7-1.1,1.2-1.6,1.6c-0.6,0.4-1.2,0.5-1.9,0.5c-1.2,0-2.1-0.4-2.7-1.3c-0.7-0.9-1-2-1-3.4c0-0.9,0.2-1.7,0.5-2.4
				c0.3-0.7,0.7-1.3,1.3-1.6c0.6-0.4,1.3-0.7,2.4-1c1.4-0.4,2.4-0.7,2.9-1v-0.4c0-0.8-0.1-1.4-0.4-1.7c-0.3-0.3-0.8-0.5-1.6-0.5
				c-0.5,0-0.9,0.2-1.2,0.4C398.9,209.4,398.6,209.9,398.5,210.7 M385.3,213.4c0,1.7,0.2,2.9,0.5,3.7c0.5,1.1,1.2,1.7,2,1.7
				c0.7,0,1.3-0.4,1.8-1.2c0.5-0.8,0.7-2.1,0.7-3.7c0-1.8-0.2-3.2-0.7-4c-0.5-0.8-1.1-1.2-1.8-1.2c-0.7,0-1.3,0.4-1.8,1.2
				C385.5,210.7,385.3,211.9,385.3,213.4 M393.3,221.8h-2.8v-2.4c-0.5,0.9-1,1.6-1.6,2c-0.6,0.4-1.3,0.7-1.9,0.7
				c-1.3,0-2.4-0.7-3.3-2.2c-0.9-1.5-1.4-3.5-1.4-6.2c0-2.7,0.5-4.8,1.4-6.2c0.9-1.4,2-2.1,3.4-2.1c1.3,0,2.4,0.7,3.3,2.2v-8h3
				V221.8z M377,214.1c-0.4,0.2-1,0.4-1.8,0.6c-0.8,0.3-1.4,0.5-1.6,0.7c-0.4,0.4-0.6,0.9-0.6,1.5c0,0.6,0.2,1.1,0.5,1.5
				c0.3,0.4,0.7,0.6,1.2,0.6c0.5,0,1.1-0.3,1.5-0.8c0.4-0.4,0.6-0.8,0.7-1.4c0.1-0.4,0.1-1,0.1-2.1V214.1z M373,210.7l-2.7-0.7
				c0.3-1.5,0.8-2.7,1.6-3.4c0.7-0.7,1.9-1.1,3.3-1.1c1.3,0,2.3,0.2,3,0.7c0.7,0.4,1.1,1,1.4,1.7c0.3,0.7,0.4,1.9,0.4,3.8l0,4.9
				c0,1.4,0,2.4,0.1,3.1c0.1,0.7,0.3,1.4,0.5,2.1h-3c-0.1-0.3-0.2-0.7-0.3-1.3c0-0.3-0.1-0.4-0.1-0.5c-0.5,0.7-1.1,1.2-1.6,1.6
				c-0.6,0.4-1.2,0.5-1.9,0.5c-1.2,0-2.1-0.4-2.8-1.3c-0.7-0.9-1-2-1-3.4c0-0.9,0.2-1.7,0.5-2.4c0.3-0.7,0.7-1.3,1.3-1.6
				c0.6-0.4,1.3-0.7,2.4-1c1.4-0.4,2.4-0.7,2.9-1v-0.4c0-0.8-0.1-1.4-0.4-1.7c-0.3-0.3-0.8-0.5-1.6-0.5c-0.5,0-0.9,0.2-1.2,0.4
				C373.5,209.4,373.2,209.9,373,210.7 M359.9,213.5c0,1.7,0.2,2.9,0.7,3.7c0.5,0.8,1,1.2,1.7,1.2c0.7,0,1.3-0.4,1.9-1.2
				c0.5-0.8,0.8-2,0.8-3.6c0-1.7-0.2-2.9-0.7-3.7c-0.5-0.8-1.1-1.2-1.8-1.2c-0.7,0-1.3,0.4-1.8,1.2
				C360.1,210.6,359.9,211.8,359.9,213.5 M357.2,222.9l3.4,0.6c0.1,0.6,0.2,1,0.4,1.2c0.3,0.3,0.7,0.5,1.3,0.5
				c0.8,0,1.4-0.2,1.8-0.5c0.3-0.2,0.5-0.6,0.6-1.1c0.1-0.3,0.1-1,0.1-1.9v-2.3c-0.9,1.7-2,2.6-3.4,2.6c-1.5,0-2.7-0.9-3.6-2.7
				c-0.7-1.4-1-3.2-1-5.4c0-2.7,0.5-4.7,1.4-6.2c0.9-1.4,2-2.1,3.4-2.1c1.4,0,2.5,0.9,3.5,2.6v-2.2h2.8v14.4c0,1.9-0.1,3.3-0.3,4.2
				c-0.2,0.9-0.5,1.7-0.9,2.2c-0.4,0.5-0.9,0.9-1.6,1.3c-0.7,0.3-1.5,0.5-2.5,0.5c-1.9,0-3.3-0.5-4.1-1.4c-0.8-0.9-1.2-2.1-1.2-3.5
				C357.2,223.2,357.2,223.1,357.2,222.9 M354.4,221.8h-3v-8.2c0-1.7-0.1-2.8-0.2-3.4c-0.1-0.5-0.3-0.9-0.6-1.2
				c-0.3-0.3-0.6-0.4-1-0.4c-0.5,0-1,0.2-1.4,0.6c-0.4,0.4-0.7,0.9-0.8,1.6s-0.2,1.9-0.2,3.7v7.3h-3v-16h2.8v2.4
				c1-1.8,2.2-2.7,3.7-2.7c0.7,0,1.3,0.2,1.8,0.5c0.5,0.3,1,0.8,1.2,1.3c0.3,0.5,0.5,1.1,0.6,1.8c0.1,0.7,0.2,1.6,0.2,2.8V221.8z
				 M333.2,213.8c0,1.6,0.3,2.8,0.8,3.6c0.5,0.8,1.2,1.3,2,1.3c0.8,0,1.4-0.4,2-1.3c0.5-0.8,0.8-2.1,0.8-3.7c0-1.6-0.3-2.8-0.8-3.6
				c-0.5-0.8-1.2-1.3-2-1.3c-0.8,0-1.4,0.4-2,1.3C333.5,211,333.2,212.2,333.2,213.8 M330.2,213.6c0-1.4,0.2-2.8,0.7-4.1
				c0.5-1.3,1.2-2.3,2.1-3c0.9-0.7,1.9-1,3-1c1.7,0,3.1,0.8,4.2,2.4c1.1,1.6,1.6,3.6,1.6,6c0,2.4-0.6,4.4-1.7,6
				c-1.1,1.6-2.5,2.4-4.2,2.4c-1,0-2-0.3-3-1c-0.9-0.7-1.7-1.6-2.1-2.9C330.4,217,330.2,215.4,330.2,213.6 M324.8,199.7h3v22.1h-3
				V199.7z M313.9,213.8c0,1.6,0.3,2.8,0.8,3.6c0.5,0.8,1.2,1.3,2,1.3c0.8,0,1.4-0.4,2-1.3c0.5-0.8,0.8-2.1,0.8-3.7
				c0-1.6-0.3-2.8-0.8-3.6c-0.5-0.8-1.2-1.3-2-1.3c-0.8,0-1.4,0.4-2,1.3C314.1,211,313.9,212.2,313.9,213.8 M310.8,213.6
				c0-1.4,0.2-2.8,0.7-4.1c0.5-1.3,1.2-2.3,2.1-3c0.9-0.7,1.9-1,3-1c1.7,0,3.1,0.8,4.2,2.4c1.1,1.6,1.6,3.6,1.6,6
				c0,2.4-0.6,4.4-1.7,6c-1.1,1.6-2.5,2.4-4.2,2.4c-1,0-2-0.3-3-1c-0.9-0.7-1.7-1.6-2.1-2.9C311,217,310.8,215.4,310.8,213.6
				 M305.9,221.8h-3v-16h2.8v2.3c0.5-1.1,0.9-1.8,1.3-2.1c0.4-0.3,0.8-0.5,1.3-0.5c0.7,0,1.3,0.3,2,0.8l-0.9,3.7
				c-0.5-0.5-1-0.7-1.4-0.7c-0.4,0-0.8,0.2-1.1,0.5c-0.3,0.3-0.5,0.9-0.7,1.8c-0.2,0.9-0.3,2.6-0.3,5.4V221.8z M291.6,203.4v6.3h1.7
				c1.2,0,2.1-0.1,2.5-0.3c0.4-0.2,0.7-0.6,1-1.1c0.2-0.5,0.4-1.1,0.4-1.7c0-0.8-0.2-1.5-0.5-2c-0.3-0.5-0.8-0.8-1.3-1
				c-0.4-0.1-1.1-0.1-2.3-0.1H291.6z M288.5,221.8v-22.1h5.1c1.9,0,3.2,0.1,3.7,0.3c0.9,0.3,1.6,1.1,2.2,2.2
				c0.6,1.1,0.9,2.5,0.9,4.3c0,1.4-0.2,2.5-0.5,3.4c-0.3,0.9-0.8,1.7-1.3,2.2c-0.5,0.5-1.1,0.9-1.6,1c-0.8,0.2-1.8,0.3-3.3,0.3h-2.1
				v8.3H288.5z M279.4,221.8h-3v-8.2c0-1.7-0.1-2.8-0.2-3.4c-0.1-0.5-0.3-0.9-0.6-1.2c-0.3-0.3-0.6-0.4-1-0.4c-0.5,0-1,0.2-1.4,0.6
				c-0.4,0.4-0.7,0.9-0.8,1.6c-0.2,0.7-0.2,1.9-0.2,3.7v7.3h-3v-16h2.8v2.4c1-1.8,2.2-2.7,3.7-2.7c0.7,0,1.3,0.2,1.8,0.5
				c0.5,0.3,1,0.8,1.2,1.3c0.3,0.5,0.5,1.1,0.6,1.8c0.1,0.7,0.2,1.6,0.2,2.8V221.8z M259.4,203.8l1.5-4.5h3.4l-2.9,4.5H259.4z
				 M258.2,213.8c0,1.6,0.3,2.8,0.8,3.6c0.5,0.8,1.2,1.3,2,1.3c0.8,0,1.4-0.4,2-1.3c0.5-0.8,0.8-2.1,0.8-3.7c0-1.6-0.3-2.8-0.8-3.6
				c-0.5-0.8-1.2-1.3-2-1.3c-0.8,0-1.4,0.4-2,1.3C258.4,211,258.2,212.2,258.2,213.8 M255.1,213.6c0-1.4,0.2-2.8,0.7-4.1
				c0.5-1.3,1.2-2.3,2.1-3c0.9-0.7,1.9-1,3-1c1.7,0,3.1,0.8,4.2,2.4c1.1,1.6,1.6,3.6,1.6,6c0,2.4-0.6,4.4-1.7,6
				c-1.1,1.6-2.5,2.4-4.2,2.4c-1,0-2-0.3-3-1c-0.9-0.7-1.7-1.6-2.1-2.9C255.4,217,255.1,215.4,255.1,213.6 M249.7,205.8h3v16h-3
				V205.8z M249.7,199.7h3v3.9h-3V199.7z M247.5,210.5l-2.9,0.8c-0.1-0.8-0.3-1.5-0.7-1.9c-0.4-0.4-0.8-0.6-1.4-0.6
				c-0.7,0-1.3,0.4-1.8,1.1c-0.4,0.7-0.7,2-0.7,3.7c0,1.9,0.2,3.2,0.7,4c0.5,0.8,1.1,1.2,1.8,1.2c0.6,0,1-0.2,1.4-0.7
				c0.4-0.5,0.6-1.2,0.8-2.4l2.9,0.7c-0.3,1.9-0.9,3.4-1.8,4.3c-0.9,1-2,1.5-3.5,1.5c-1.7,0-3-0.7-4-2.2c-1-1.5-1.5-3.5-1.5-6.1
				c0-2.6,0.5-4.7,1.5-6.2c1-1.5,2.3-2.2,4-2.2c1.4,0,2.5,0.4,3.3,1.3C246.5,207.5,247.1,208.8,247.5,210.5 M231.7,214.1
				c-0.4,0.2-1,0.4-1.8,0.6c-0.8,0.3-1.4,0.5-1.6,0.7c-0.4,0.4-0.6,0.9-0.6,1.5c0,0.6,0.2,1.1,0.5,1.5c0.3,0.4,0.7,0.6,1.2,0.6
				c0.5,0,1.1-0.3,1.5-0.8c0.4-0.4,0.6-0.8,0.7-1.4c0.1-0.4,0.1-1,0.1-2.1V214.1z M227.7,210.7L225,210c0.3-1.5,0.8-2.7,1.6-3.4
				c0.7-0.7,1.9-1.1,3.3-1.1c1.3,0,2.3,0.2,3,0.7c0.7,0.4,1.1,1,1.4,1.7c0.3,0.7,0.4,1.9,0.4,3.8l0,4.9c0,1.4,0,2.4,0.1,3.1
				c0.1,0.7,0.3,1.4,0.5,2.1h-3c-0.1-0.3-0.2-0.7-0.3-1.3c0-0.3-0.1-0.4-0.1-0.5c-0.5,0.7-1.1,1.2-1.6,1.6c-0.6,0.4-1.2,0.5-1.9,0.5
				c-1.2,0-2.1-0.4-2.8-1.3c-0.7-0.9-1-2-1-3.4c0-0.9,0.2-1.7,0.5-2.4c0.3-0.7,0.7-1.3,1.3-1.6c0.6-0.4,1.3-0.7,2.4-1
				c1.4-0.4,2.4-0.7,2.9-1v-0.4c0-0.8-0.1-1.4-0.4-1.7c-0.3-0.3-0.8-0.5-1.6-0.5c-0.5,0-1,0.2-1.2,0.4
				C228.2,209.4,227.9,209.9,227.7,210.7 M219.9,221.8h-3v-16h2.8v2.3c0.5-1.1,0.9-1.8,1.3-2.1c0.4-0.3,0.8-0.5,1.3-0.5
				c0.7,0,1.3,0.3,2,0.8l-0.9,3.7c-0.5-0.5-1-0.7-1.4-0.7c-0.4,0-0.8,0.2-1.1,0.5c-0.3,0.3-0.5,0.9-0.7,1.8
				c-0.2,0.9-0.2,2.6-0.2,5.4V221.8z M211.6,212.4c0-1.2-0.2-2.2-0.7-2.8c-0.4-0.6-0.9-1-1.6-1c-0.7,0-1.2,0.3-1.6,1
				c-0.4,0.7-0.6,1.6-0.6,2.7H211.6z M211.4,216.7l3,0.7c-0.4,1.5-1,2.7-1.8,3.5c-0.8,0.8-1.9,1.2-3.1,1.2c-2,0-3.4-0.9-4.4-2.7
				c-0.7-1.5-1.1-3.3-1.1-5.5c0-2.7,0.5-4.7,1.5-6.2c1-1.5,2.2-2.3,3.7-2.3c1.7,0,3,0.8,4,2.4c1,1.6,1.4,4,1.4,7.2h-7.5
				c0,1.3,0.3,2.2,0.7,2.9c0.5,0.7,1,1,1.7,1c0.5,0,0.9-0.2,1.2-0.5C211,218.1,211.3,217.5,211.4,216.7 M194.4,213.4
				c0,1.7,0.2,2.9,0.6,3.7c0.5,1.1,1.2,1.7,2.1,1.7c0.7,0,1.2-0.4,1.7-1.2c0.5-0.8,0.7-2.1,0.7-3.8c0-1.8-0.2-3.1-0.7-4
				c-0.5-0.8-1.1-1.2-1.8-1.2c-0.7,0-1.3,0.4-1.8,1.2C194.7,210.6,194.4,211.8,194.4,213.4 M191.5,221.8v-22.1h3v8
				c0.9-1.5,2-2.2,3.3-2.2c1.4,0,2.5,0.7,3.4,2.1c0.9,1.4,1.3,3.4,1.3,6.1c0,2.7-0.5,4.8-1.4,6.3s-2,2.2-3.3,2.2
				c-0.6,0-1.3-0.2-1.9-0.7c-0.6-0.5-1.2-1.1-1.6-2v2.4H191.5z M185.5,205.8h3v16h-3V205.8z M185.5,199.7h3v3.9h-3V199.7z
				 M172.3,221.8v-21.9h3.1v18.2h7.8v3.7H172.3z M160.8,212.4c0-1.2-0.2-2.2-0.7-2.8c-0.4-0.6-0.9-1-1.6-1c-0.7,0-1.2,0.3-1.6,1
				c-0.4,0.7-0.6,1.6-0.6,2.7H160.8z M160.6,216.7l3,0.7c-0.4,1.5-1,2.7-1.8,3.5c-0.8,0.8-1.9,1.2-3.1,1.2c-2,0-3.4-0.9-4.4-2.7
				c-0.7-1.5-1.1-3.3-1.1-5.5c0-2.7,0.5-4.7,1.5-6.2c1-1.5,2.2-2.3,3.7-2.3c1.7,0,3,0.8,4,2.4c1,1.6,1.4,4,1.4,7.2h-7.5
				c0,1.3,0.3,2.2,0.7,2.9c0.5,0.7,1,1,1.7,1c0.5,0,0.9-0.2,1.2-0.5C160.2,218.1,160.4,217.5,160.6,216.7 M143.1,213.4
				c0,1.7,0.2,2.9,0.5,3.7c0.5,1.1,1.2,1.7,2,1.7c0.7,0,1.3-0.4,1.8-1.2c0.5-0.8,0.7-2.1,0.7-3.7c0-1.8-0.2-3.2-0.7-4
				c-0.5-0.8-1.1-1.2-1.8-1.2c-0.7,0-1.3,0.4-1.8,1.2C143.4,210.7,143.1,211.9,143.1,213.4 M151.1,221.8h-2.8v-2.4
				c-0.5,0.9-1,1.6-1.6,2c-0.6,0.4-1.3,0.7-1.9,0.7c-1.3,0-2.4-0.7-3.3-2.2c-0.9-1.5-1.4-3.5-1.4-6.2c0-2.7,0.5-4.8,1.4-6.2
				c0.9-1.4,2-2.1,3.4-2.1c1.3,0,2.4,0.7,3.3,2.2v-8h3V221.8z M128.8,214.1c-0.4,0.2-1,0.4-1.8,0.6c-0.8,0.3-1.4,0.5-1.6,0.7
				c-0.4,0.4-0.6,0.9-0.6,1.5c0,0.6,0.2,1.1,0.5,1.5c0.3,0.4,0.7,0.6,1.2,0.6c0.5,0,1.1-0.3,1.5-0.8c0.4-0.4,0.6-0.8,0.7-1.4
				c0.1-0.4,0.1-1,0.1-2.1V214.1z M124.8,210.7l-2.7-0.7c0.3-1.5,0.8-2.7,1.6-3.4c0.7-0.7,1.9-1.1,3.3-1.1c1.3,0,2.3,0.2,3,0.7
				c0.6,0.4,1.1,1,1.4,1.7c0.3,0.7,0.4,1.9,0.4,3.8l0,4.9c0,1.4,0,2.4,0.1,3.1c0.1,0.7,0.3,1.4,0.5,2.1h-3c-0.1-0.3-0.2-0.7-0.3-1.3
				c0-0.3-0.1-0.4-0.1-0.5c-0.5,0.7-1.1,1.2-1.6,1.6c-0.6,0.4-1.2,0.5-1.9,0.5c-1.2,0-2.1-0.4-2.7-1.3c-0.7-0.9-1-2-1-3.4
				c0-0.9,0.2-1.7,0.5-2.4c0.3-0.7,0.7-1.3,1.3-1.6c0.5-0.4,1.3-0.7,2.4-1c1.4-0.4,2.4-0.7,2.9-1v-0.4c0-0.8-0.1-1.4-0.4-1.7
				c-0.3-0.3-0.8-0.5-1.6-0.5c-0.5,0-1,0.2-1.2,0.4C125.2,209.4,125,209.9,124.8,210.7 M119.5,221.8h-3v-8.2c0-1.7-0.1-2.8-0.2-3.4
				c-0.1-0.5-0.3-0.9-0.6-1.2c-0.3-0.3-0.6-0.4-1-0.4c-0.5,0-1,0.2-1.4,0.6c-0.4,0.4-0.7,0.9-0.8,1.6s-0.2,1.9-0.2,3.7v7.3h-3v-16
				h2.8v2.4c1-1.8,2.2-2.7,3.7-2.7c0.7,0,1.3,0.2,1.8,0.5c0.5,0.3,1,0.8,1.2,1.3c0.3,0.5,0.5,1.1,0.6,1.8c0.1,0.7,0.2,1.6,0.2,2.8
				V221.8z M103.2,205.8h3v16h-3V205.8z M103.2,199.7h3v3.9h-3V199.7z M92.8,213.5c0,1.8,0.2,3.1,0.8,4c0.5,0.9,1.1,1.3,1.8,1.3
				c0.7,0,1.3-0.4,1.7-1.2c0.5-0.8,0.7-2.1,0.7-3.9c0-1.7-0.2-2.9-0.7-3.7c-0.5-0.8-1.1-1.2-1.8-1.2c-0.7,0-1.3,0.4-1.8,1.2
				C93,210.8,92.8,212,92.8,213.5 M89.8,205.8h2.8v2.4c0.4-0.8,0.9-1.5,1.5-2c0.6-0.5,1.3-0.8,2.1-0.8c1.3,0,2.4,0.7,3.3,2.2
				c0.9,1.5,1.4,3.5,1.4,6.1c0,2.7-0.5,4.7-1.4,6.2c-0.9,1.5-2,2.2-3.4,2.2c-0.6,0-1.2-0.2-1.7-0.5c-0.5-0.4-1-1-1.6-1.8v8.1h-3
				V205.8z M83.8,205.8h3v16h-3V205.8z M83.8,199.7h3v3.9h-3V199.7z M72.9,213.4c0,1.7,0.2,2.9,0.5,3.7c0.5,1.1,1.2,1.7,2,1.7
				c0.7,0,1.3-0.4,1.8-1.2c0.5-0.8,0.7-2.1,0.7-3.7c0-1.8-0.2-3.2-0.7-4c-0.5-0.8-1.1-1.2-1.8-1.2c-0.7,0-1.3,0.4-1.8,1.2
				C73.1,210.7,72.9,211.9,72.9,213.4 M80.9,221.8h-2.8v-2.4c-0.5,0.9-1,1.6-1.6,2c-0.6,0.4-1.3,0.7-1.9,0.7c-1.3,0-2.4-0.7-3.3-2.2
				c-0.9-1.5-1.4-3.5-1.4-6.2c0-2.7,0.5-4.8,1.3-6.2c0.9-1.4,2-2.1,3.4-2.1c1.3,0,2.4,0.7,3.3,2.2v-8h3V221.8z M65.1,212.4
				c0-1.2-0.2-2.2-0.7-2.8c-0.4-0.6-0.9-1-1.6-1c-0.7,0-1.2,0.3-1.6,1c-0.4,0.7-0.6,1.6-0.6,2.7H65.1z M64.9,216.7l3,0.7
				c-0.4,1.5-1,2.7-1.8,3.5c-0.8,0.8-1.9,1.2-3.1,1.2c-2,0-3.4-0.9-4.4-2.7c-0.7-1.5-1.1-3.3-1.1-5.5c0-2.7,0.5-4.7,1.5-6.2
				c1-1.5,2.2-2.3,3.7-2.3c1.7,0,3,0.8,4,2.4c1,1.6,1.4,4,1.4,7.2h-7.5c0,1.3,0.3,2.2,0.7,2.9c0.5,0.7,1,1,1.7,1
				c0.5,0,0.9-0.2,1.2-0.5C64.5,218.1,64.8,217.5,64.9,216.7 M49.8,205.8h1.7v-1.2c0-1.3,0.1-2.4,0.3-3c0.2-0.7,0.6-1.2,1.1-1.6
				c0.5-0.4,1.2-0.6,2.1-0.6c0.9,0,1.7,0.2,2.5,0.5l-0.4,3c-0.5-0.2-0.9-0.2-1.4-0.2c-0.4,0-0.7,0.1-0.9,0.4
				c-0.2,0.3-0.3,0.8-0.3,1.7v1.1h2.2v3.3h-2.2v12.7h-3v-12.7h-1.7V205.8z M45.1,205.8h3v16h-3V205.8z M45.1,199.7h3v3.9h-3V199.7z
				 M29.4,221.8v-22.1h3.1l6.4,14.8v-14.8h2.9v22.1h-3.2l-6.3-14.4v14.4H29.4z"/>
		</g>
	</g>
	<g>
		<g>
			<path class="st1" d="M27.2,132.2h12.3l16,31v-31h12.4v56H55.5l-15.9-30.8v30.8H27.2V132.2z"/>
		</g>
		<g>
			<path class="st1" d="M80.1,132.2h13.2v56H80.1V132.2z"/>
		</g>
		<g>
			<path class="st1" d="M133.9,165.3l11.5,4.6c-0.8,4.3-2,7.8-3.7,10.7c-1.7,2.9-3.7,5-6.2,6.5c-2.5,1.4-5.6,2.2-9.4,2.2
				c-4.6,0-8.4-0.9-11.3-2.7s-5.5-4.9-7.6-9.3c-2.1-4.5-3.2-10.2-3.2-17.1c0-9.3,1.9-16.4,5.6-21.4s9-7.5,15.9-7.5
				c5.4,0,9.6,1.4,12.6,4.3c3.1,2.9,5.3,7.2,6.8,13.1l-11.6,3.4c-0.4-1.7-0.8-3-1.3-3.7c-0.7-1.3-1.6-2.3-2.7-3.1
				c-1.1-0.7-2.3-1.1-3.6-1.1c-3,0-5.3,1.6-6.8,4.7c-1.2,2.3-1.8,6-1.8,11c0,6.2,0.7,10.5,2.1,12.8c1.4,2.3,3.4,3.5,6,3.5
				c2.5,0,4.4-0.9,5.7-2.8C132.4,171.5,133.3,168.8,133.9,165.3z"/>
		</g>
		<g>
			<path class="st1" d="M180.9,179H166l-2.1,9.2h-13.4l16-56h14.3l16,56H183L180.9,179z M178.2,166.9l-4.7-20.1l-4.6,20.1H178.2z"/>
		</g>
		<g>
			<path class="st1" d="M204.1,188.2v-56H226c4.1,0,7.2,0.5,9.3,1.4c2.1,0.9,3.9,2.6,5.2,5.1c1.3,2.5,2,5.5,2,9.1
				c0,3.1-0.5,5.8-1.5,8c-1,2.3-2.4,4.1-4.1,5.5c-1.1,0.9-2.7,1.6-4.6,2.2c1.6,0.7,2.7,1.4,3.4,2.1c0.5,0.5,1.2,1.4,2.1,2.9
				c0.9,1.5,1.5,2.7,1.8,3.5l6.4,16.2h-14.8l-7-17.1c-0.9-2.2-1.7-3.7-2.4-4.3c-0.9-0.9-2-1.3-3.2-1.3h-1.2v22.7H204.1z
				 M217.3,154.9h5.5c0.6,0,1.8-0.3,3.5-0.8c0.9-0.2,1.6-0.8,2.1-1.8c0.6-0.9,0.8-2,0.8-3.3c0-1.8-0.4-3.2-1.3-4.2
				c-0.9-1-2.5-1.5-4.9-1.5h-5.8V154.9z"/>
		</g>
		<g>
			<path class="st1" d="M253.3,132.2h19.5c3.8,0,7,0.7,9.3,2.1c2.4,1.4,4.3,3.3,5.9,5.9c1.5,2.6,2.7,5.6,3.4,9c0.7,3.4,1,7,1,10.9
				c0,6-0.5,10.6-1.6,13.9c-1,3.3-2.5,6.1-4.3,8.3c-1.8,2.2-3.8,3.7-5.9,4.5c-2.9,1-5.5,1.5-7.8,1.5h-19.5V132.2z M266.4,144.9v30.6
				h3.2c2.7,0,4.7-0.4,5.9-1.2c1.2-0.8,2.1-2.2,2.7-4.2c0.7-2,1-5.2,1-9.7c0-5.9-0.7-10-2.2-12.2c-1.5-2.2-3.9-3.3-7.3-3.3H266.4z"
				/>
		</g>
		<g>
			<path class="st1" d="M302.8,132.2H316v56h-13.2V132.2z"/>
		</g>
		<g>
			<path class="st1" d="M354.5,179h-14.9l-2.1,9.2h-13.4l16-56h14.3l16,56h-13.8L354.5,179z M351.8,166.9l-4.7-20.1l-4.6,20.1H351.8
				z"/>
		</g>
		<g>
			<path class="st1" d="M397.4,132.2h14.5l7.5,17.2l7.3-17.2H441l-13.2,27.1l14.5,28.9h-14.8l-8.4-18l-8.4,18H396l14.7-29.2
				L397.4,132.2z"/>
		</g>
		<g>
			<path class="st1" d="M449.4,132.2h13.1v42.2h20.5v13.8h-33.6V132.2z"/>
		</g>
	</g>
</g>
</svg>
