<?xml version="1.0" encoding="utf-8"?>
<!-- Generator: Adobe Illustrator 21.0.0, SVG Export Plug-In . SVG Version: 6.00 Build 0)  -->
<svg version="1.1" id="Layer_2" xmlns="http://www.w3.org/2000/svg" xmlns:xlink="http://www.w3.org/1999/xlink" x="0px" y="0px"
	 viewBox="0 0 504 360" style="enable-background:new 0 0 504 360;" xml:space="preserve">
<style type="text/css">
	.st0{fill:#FFC600;}
	.st1{fill:#ED1C24;}
	.st2{fill:#FFC70A;}
</style>
<g>
	<g>
		<g>
			<path class="st0" d="M113.1,218.4c-25.6-0.4-37.8-21.1-37.8-41.5c0-20.1,10.9-40.1,37.8-41.4v15C97.9,152.5,94,166,94,176.8
				c0,3.4,0.1,12.6,6.1,19.8c3.7,4.6,7.8,5.9,13,6.5V218.4z M116.1,203.1c5.2-0.7,9.5-1.9,13.3-6.6c5-6.1,5.8-13.2,5.8-19.5
				c0-15.9-7-24.9-19.2-26.5v-15c32.1,2.1,37.8,27.6,37.8,41.3c0,23.4-14.2,40.4-37.8,41.6V203.1z"/>
		</g>
		<g>
			<path class="st0" d="M175.4,216.9v-79.1h17.8v79.1H175.4z M196.1,187.8v-14.3h8.2c6.2,0,16.1-0.1,16.1-11.1
				c0-9.9-8.6-9.6-14.3-9.6h-10v-14.9h12.7c7.6,0.1,15,0.2,21.2,4.7c7.8,5.8,7.8,14.8,7.8,17.2c0,12.3-7.5,18.3-14.1,19.2
				c2.2,0.7,5.8,1.7,8.4,6.3c1.7,3,1.9,4.4,3.8,16.3c1.2,7.6,2.8,11.4,5.7,15.6h-18.8c-1.3-2.4-2.8-4.6-3.9-11
				c-0.6-2.8-0.8-5.8-1.3-8.6c-1.8-8.9-5.9-9.5-13-9.5H196.1z"/>
		</g>
		<g>
			<path class="st0" d="M294.6,218.4c-25.6-0.4-37.8-21.1-37.8-41.5c0-20.1,10.9-40.1,37.8-41.4v15c-15.1,1.9-19.1,15.5-19.1,26.2
				c0,3.4,0.1,12.6,6.1,19.8c3.7,4.6,7.8,5.9,13,6.5V218.4z M297.7,203.1c5.2-0.7,9.5-1.9,13.3-6.6c5-6.1,5.8-13.2,5.8-19.5
				c0-15.9-6.9-24.9-19.2-26.5v-15c32.1,2.1,37.8,27.6,37.8,41.3c0,23.4-14.2,40.4-37.8,41.6V203.1z"/>
		</g>
		<g>
			<path class="st0" d="M384.8,219c-17,0-32.2-6.4-33.1-27l17.7-1c0.4,5.4,1.8,11.9,15.2,13.1L384.8,219z M375.9,182.7
				c-7.1-1.9-21.7-5.9-21.7-23.1c0-14,10.1-18.8,12.8-20.2c4-1.9,8.7-3.2,17.7-3.5v14.3c-3.3,0-12.4,0.2-12.4,7.8
				c0,5.3,4.3,6.6,9.4,8l12.1,2.8c10.8,2.7,25.1,6.4,25.1,24.3c0,17.5-13.7,25.2-31.1,25.6v-14.9c1.9-0.1,12.9-0.4,12.9-9
				c0-5.9-5.3-7.5-8.9-8.5L375.9,182.7z M400,162.3c-0.6-7.1-3.3-10.8-12.3-11.9V136c6.8,0.1,16.5,1.7,22.8,8
				c5.7,5.7,6.7,13.5,7.2,17L400,162.3z"/>
		</g>
	</g>
	<g>
		<g>
			<g>
				<path class="st1" d="M107.9,227v-0.8c-20.5-2.5-40.8-18.3-40.8-49.3c0-32.4,21-46.4,40.8-49.1v-1l7,0.5l6.3-0.3v0.9
					c30,4.1,40.8,27.6,40.8,48.9c0,26.7-16.2,45.9-40.8,49.3v0.6l-5.8-0.1L107.9,227z M99.4,147c-14.6,7.2-16,23.9-16,29.9
					c0,11.7,4.8,23.6,15.1,29.5c-1.7-1.2-3.3-2.7-4.9-4.7c-5.2-6.4-7.9-14.8-7.9-25C85.8,163.3,90.8,152.8,99.4,147z M132.2,148.6
					c7.3,5.9,11.3,15.7,11.3,28.4c0,7.2-0.9,16.5-7.7,24.7c-0.8,1-1.7,2-2.6,2.8c8-5.7,12.6-15.4,12.6-27.8
					C145.7,169.9,144.1,156,132.2,148.6z M114.6,158.6l-0.5,0.1c-9.8,1.2-11.9,10.5-11.9,18.1c0,2.4,0,9.5,4.2,14.7
					c1.9,2.3,3.6,3.1,7.6,3.5l0.7,0.1l0.4-0.1c4.4-0.6,6.2-1.4,8-3.7c2.9-3.4,4-7.6,4-14.4c0-16.8-8.7-17.9-12-18.3L114.6,158.6z"/>
			</g>
			<g>
				<path class="st1" d="M257.4,225.1h-39.3l-2.6-4.5c-1.8-3.2-3.4-6.4-4.6-13.2c-0.3-1.4-0.5-3-0.7-4.6c-0.2-1.3-0.3-2.6-0.6-3.8
					c-0.3-1.6-0.7-2.4-0.8-2.7c-0.5-0.1-1.6-0.3-4.2-0.3h-3.1v29.1h-34.2v-95.5h41.6c8.4,0.1,17.7,0.3,26,6.3
					c5.2,3.8,11.2,11,11.2,23.8c0,8.9-3.1,15.6-7.5,20.2c0.3,0.4,0.5,0.8,0.8,1.2c2.4,4.3,2.8,6.6,4.8,19c1.1,6.6,2.3,9.2,4.3,12.2
					L257.4,225.1z M227.9,208.8h1.2c-0.5-1.8-0.9-3.9-1.2-6.1c-1.8-11.5-2-11.9-2.9-13.6c-0.8-1.4-1.5-1.8-2.9-2.2
					c1.5,2.2,2.7,5.1,3.5,8.8c0.3,1.7,0.6,3.3,0.8,4.9c0.2,1.3,0.3,2.6,0.6,3.8C227.2,206.3,227.6,207.7,227.9,208.8z M183.6,208.8
					h1.5V146h-1.5V208.8z M213.8,180.7c2.8,0.9,5.5,2.5,7.7,5.4l0.6-9C219.9,178.7,217.1,179.9,213.8,180.7z M219.6,146.8
					c3.7,1.8,9,6.1,9,15.6c0,1.3-0.1,2.6-0.3,3.8c0.8-1.7,1.3-3.8,1.3-6.5c0-4.9-1.5-8.3-4.5-10.6
					C223.5,147.9,221.7,147.2,219.6,146.8z M201.4,165.3h2.9c8,0,8-0.9,8-2.9c0-0.5,0-0.8-0.1-1c-1.2-0.5-4.2-0.4-5.7-0.5h-5.1
					V165.3z"/>
			</g>
			<g>
				<path class="st1" d="M289.5,227v-0.8c-20.5-2.5-40.8-18.3-40.8-49.3c0-32.4,21-46.4,40.8-49.1v-1l7,0.5l6.3-0.3v0.9
					c30,4.1,40.8,27.6,40.8,48.9c0,26.7-16.2,45.9-40.8,49.3v0.6l-5.8-0.1L289.5,227z M281,147c-14.6,7.2-16,23.9-16,29.9
					c0,11.7,4.8,23.6,15.1,29.5c-1.7-1.2-3.3-2.7-4.9-4.7c-5.2-6.4-7.9-14.8-7.9-25C267.4,163.3,272.4,152.8,281,147z M313.7,148.6
					c7.3,5.9,11.3,15.7,11.3,28.4c0,7.2-0.9,16.5-7.7,24.7c-0.8,1-1.7,2-2.6,2.8c8-5.7,12.6-15.4,12.6-27.8
					C327.3,169.9,325.7,156,313.7,148.6z M296.2,158.6l-0.5,0.1c-9.8,1.2-11.9,10.5-11.9,18.1c0,2.4,0,9.5,4.2,14.7
					c1.9,2.3,3.6,3.1,7.6,3.5l0.7,0.1l0.4-0.1c4.4-0.6,6.2-1.4,8-3.7c2.9-3.4,4-7.6,4-14.4c0-16.8-8.7-17.9-12-18.3L296.2,158.6z"/>
			</g>
			<g>
				<path class="st1" d="M379.6,227.2v-0.2c-22.1-1.6-35.2-14.1-36.1-34.7l-0.4-8.1l14.3-0.8c-6.2-4.6-11.5-11.9-11.5-23.8
					c0-8.6,3-20.3,17.2-27.4l0.3-0.1c4.8-2.3,9.6-3.5,16.1-4v-0.4l6.3,0.1l7-0.2v0.5c7,0.8,16.5,3.1,23.4,10c7.8,7.7,9,18,9.5,21.8
					l1.1,8.5l-10.9,0.8c6.3,4.7,11.1,12,11.1,24c0,18.9-12.9,31.4-34,33.4l0,0.4h-8.2c-0.6,0-1.1,0-1.7,0L379.6,227.2z M361.3,199.6
					c1.4,3.5,4.3,7.1,10.3,9.3c-4.7-2.5-7.3-6.1-8.6-9.4L361.3,199.6z M377.9,174.8l16.1,3.8c3.7,1,14.8,4.2,14.8,16.4
					c0,2.3-0.5,7.7-5.1,11.8c4.1-2.6,6.9-6.8,6.9-13.5c0-10-5.6-13.1-18.9-16.4l-12-2.8c-4.9-1.3-15.7-4.1-15.7-15.9
					c0-1.8,0.4-5.7,2.9-9.2c-2.5,2.1-4.6,5.2-4.6,10.6C362.3,168.8,368,172.1,377.9,174.8z M377.7,191.5c0.3,2.5,1.3,3.8,7.6,4.3
					l2-0.1c2.4-0.1,3.8-0.5,4.6-0.7c-0.7-0.3-1.5-0.5-2.1-0.7L377.7,191.5z M384.9,158.5l6.3,1.5c-0.6-0.9-1.8-1.1-4.5-1.4l-0.4-0.1
					H384.9z M402.1,147.7c1.8,1.6,3.2,3.6,4.2,6l1-0.1c-0.7-1.4-1.5-2.7-2.7-3.8C403.9,149,403,148.3,402.1,147.7z"/>
			</g>
		</g>
	</g>
	<g>
		<g>
			<g>
				<path class="st2" d="M113.1,218.4c-25.6-0.4-37.8-21.1-37.8-41.5c0-20.1,10.9-40.1,37.8-41.4v15C97.9,152.5,94,166,94,176.8
					c0,3.4,0.1,12.6,6.1,19.8c3.7,4.6,7.8,5.9,13,6.5V218.4z M116.1,203.1c5.2-0.7,9.5-1.9,13.3-6.6c5-6.1,5.8-13.2,5.8-19.5
					c0-15.9-7-24.9-19.2-26.5v-15c32.1,2.1,37.8,27.6,37.8,41.3c0,23.4-14.2,40.4-37.8,41.6V203.1z"/>
			</g>
			<g>
				<path class="st2" d="M175.4,216.9v-79.1h17.8v79.1H175.4z M196.1,187.8v-14.3h8.2c6.2,0,16.1-0.1,16.1-11.1
					c0-9.9-8.6-9.6-14.3-9.6h-10v-14.9h12.7c7.6,0.1,15,0.2,21.2,4.7c7.8,5.8,7.8,14.8,7.8,17.2c0,12.3-7.5,18.3-14.1,19.2
					c2.2,0.7,5.8,1.7,8.4,6.3c1.7,3,1.9,4.4,3.8,16.3c1.2,7.6,2.8,11.4,5.7,15.6h-18.8c-1.3-2.4-2.8-4.6-3.9-11
					c-0.6-2.8-0.8-5.8-1.3-8.6c-1.8-8.9-5.9-9.5-13-9.5H196.1z"/>
			</g>
			<g>
				<path class="st2" d="M294.6,218.4c-25.6-0.4-37.8-21.1-37.8-41.5c0-20.1,10.9-40.1,37.8-41.4v15c-15.1,1.9-19.1,15.5-19.1,26.2
					c0,3.4,0.1,12.6,6.1,19.8c3.7,4.6,7.8,5.9,13,6.5V218.4z M297.7,203.1c5.2-0.7,9.5-1.9,13.3-6.6c5-6.1,5.8-13.2,5.8-19.5
					c0-15.9-6.9-24.9-19.2-26.5v-15c32.1,2.1,37.8,27.6,37.8,41.3c0,23.4-14.2,40.4-37.8,41.6V203.1z"/>
			</g>
			<g>
				<path class="st2" d="M384.8,219c-17,0-32.2-6.4-33.1-27l17.7-1c0.4,5.4,1.8,11.9,15.2,13.1L384.8,219z M375.9,182.7
					c-7.1-1.9-21.7-5.9-21.7-23.1c0-14,10.1-18.8,12.8-20.2c4-1.9,8.7-3.2,17.7-3.5v14.3c-3.3,0-12.4,0.2-12.4,7.8
					c0,5.3,4.3,6.6,9.4,8l12.1,2.8c10.8,2.7,25.1,6.4,25.1,24.3c0,17.5-13.7,25.2-31.1,25.6v-14.9c1.9-0.1,12.9-0.4,12.9-9
					c0-5.9-5.3-7.5-8.9-8.5L375.9,182.7z M400,162.3c-0.6-7.1-3.3-10.8-12.3-11.9V136c6.8,0.1,16.5,1.7,22.8,8
					c5.7,5.7,6.7,13.5,7.2,17L400,162.3z"/>
			</g>
		</g>
	</g>
</g>
</svg>
