<?xml version="1.0" encoding="utf-8"?>
<!-- Generator: Adobe Illustrator 21.0.0, SVG Export Plug-In . SVG Version: 6.00 Build 0)  -->
<svg version="1.1" id="Capa_1" xmlns="http://www.w3.org/2000/svg" xmlns:xlink="http://www.w3.org/1999/xlink" x="0px" y="0px"
	 viewBox="0 0 360 68" style="enable-background:new 0 0 360 68;" xml:space="preserve">
<g>
	<path d="M32.5,25.6c3.4,0,6.1,1.9,6.1,4.2c0,1.6-1.1,2.5-2.4,2.5c-0.1,0-1.3,0-1.7-1.4c-0.2-0.6-0.2-1.1-0.4-1.6
		C33.6,28,32.3,28,31.9,28c-2.2,0-3.5,1.6-3.5,3c0,1.4,0.7,2.9,1.3,3.8c0.4,0.8,0.8,1.5,1.2,2.4c2.4,4.6,3.5,6.7,3.5,9.4
		c0,3.7-2.8,8.6-9.4,8.6c-5.1,0-7.1-3.8-7.1-5.7c0-1,0.6-2.5,2.2-2.5c0.6,0,1.2,0.4,1.6,0.8c0.7,0.7,0.9,1.9,0.9,3
		c0,0.8,0.1,1.2,0.2,1.5c0.2,0.3,1.2,0.7,2.5,0.7c1.8,0,4.5-1.1,4.5-3.8c0-0.6-0.1-1.2-0.3-1.7c-0.3-0.9-0.6-1.4-3.6-7.3
		c-1.3-2.5-2.2-4.4-2.2-6.6C23.8,27.8,28.9,25.6,32.5,25.6z"/>
	<path d="M48.6,27.6c2.2-1.6,4.6-2,6-2c4.8,0,7.6,4.1,7.6,9.9c0,5.6-2.5,11.5-5,14.6c-2.3,2.9-5.6,5.2-9.1,5.2
		c-3.5,0-7.3-2.9-7.3-10.4C40.7,39.2,43.3,31.5,48.6,27.6z M49.5,32.5c-2.1,4.1-4.2,12-4.2,15.8c0,1.4,0.2,3,1,3.8
		c0.1,0.2,0.9,0.9,1.9,0.9c1.5,0,2.9-1.2,3.8-2.7c3-4,5.8-14.4,5.8-18.4c0-0.7-0.1-1.5-0.3-2.3c-0.4-1.2-1.6-1.9-2.6-1.9
		C53.4,27.7,51.2,29,49.5,32.5z"/>
	<path d="M86.6,47.9c-0.2,0.7-0.7,2.1-0.7,2.7c0,1.2,1.1,1.2,1.1,1.2c0.3,0,0.9-0.1,1.8-1c1.5-1.4,2.5-3.2,3.3-4.8L94,47
		c-1,2-2.3,3.9-3.8,5.5c-0.6,0.7-2.6,2.7-5.6,2.7c-2.8,0-3.8-2-3.8-3.6c0-1,0.6-2.9,1-4.3l4.4-13.2c0.6-1.7,1-3.1,1-3.8
		c0-1.2-0.9-1.6-1.7-1.6c-1.2,0-3.1,1.2-4.8,3.3c-3.3,4.1-4.8,9-6.1,13l-2.8,9.4h-5.3L73,33.2c0.6-1.9,0.7-2.4,0.7-2.9
		c0-0.7-0.4-1.1-1-1.1c-0.9,0-1.6,0.9-2,1.4c-1.2,1.6-1.9,2.9-2.6,4.2l-2.2-0.6c2.5-4.8,5.3-8.6,8.5-8.6c2.1,0,3.3,1.5,3.3,3.7
		c0,1.2-0.4,2.6-0.9,4.5c1.7-2.9,5.6-8.3,10.2-8.3c2.9,0,4.8,2.3,4.8,5c0,1.8-0.8,4.2-1.9,7.5L86.6,47.9z"/>
	<path d="M134.3,9.8c1.9,0.1,6.3,0.1,9.8-1.1l0.8,0.4l-12.5,40.2c-0.1,0.5-0.4,1.5-0.4,2v0.3c0.1,0.8,0.6,0.9,0.9,0.9
		c0.6,0,1-0.2,1.3-0.4c1.9-1.2,3.2-3.4,4.4-5.3l1.9,0.9c-1.1,2-4.2,7.6-8.8,7.6c-1.1,0-2.1-0.3-2.9-1.1c-1.3-1.2-1.3-2.4-1.3-3.6
		c-0.9,1-1.8,2-2.8,2.7c-0.8,0.6-3,2-5.3,2c-4.8,0-6.4-4.6-6.4-7.6c0-6.1,4.3-14.1,9.3-18.4c3.6-3,6-3.7,8-3.7c2.2,0,3,0.8,3.7,1.4
		l3.8-12.5c0-0.2,0.2-0.9,0.2-1.3c0-0.3-0.2-0.6-0.4-0.8c-0.6-0.5-3.3-0.5-4.1-0.5L134.3,9.8z M133.1,30c0.1-0.2,0.1-0.4,0.1-0.6
		c0-0.7-0.7-1.6-2.2-1.6c-1.7,0-3.7,1.4-5.6,3.6c-3.4,4-7.3,13-7.3,17.5c0,3.1,2.1,3.5,2.8,3.5c1.8,0,4.8-2,7.4-7.8
		c0.6-1.5,1.2-3,1.7-4.6L133.1,30z"/>
	<path d="M151.1,47.8c-0.6,1.9-0.7,2.3-0.7,2.8c0,0.2,0,1.2,0.9,1.2c0.6,0,1.2-0.6,1.7-1.1c1.4-1.5,1.9-2.5,2.9-4.4l2,1
		c-3.4,6.4-6.1,7.8-8.7,7.8c-3,0-4.2-2-4.2-3.3c0-1.2,0.6-2.8,1-4.3l5-14.7c0.6-2.1,0.7-2.4,0.7-2.8c0-0.6-0.2-0.9-0.8-0.9
		c-0.4,0-0.7,0.1-1.5,1.1c-0.9,1.1-1.7,2.7-2.5,4.4l-2.1-0.6c1.5-3.2,3.8-8.2,8.4-8.2c2.8,0,3.7,2.1,3.7,3.5c0,0.9-0.2,1.7-0.4,2.5
		L151.1,47.8z M154.2,16.1c0-1.7,1.4-3.2,3.2-3.2s3.2,1.5,3.2,3.2c0,1.8-1.5,3.2-3.2,3.2S154.2,17.9,154.2,16.1z"/>
	<path d="M161.9,32c0.9-3.9,2.2-6.5,4.3-6.5c1.3,0,1.9,0.7,2.9,2c0.7,0.9,1.2,1.5,2,1.5c0.7,0,1.1-0.5,1.2-0.7
		c0.1-0.2,0.2-0.4,0.9-2.3c0.2-0.1,0.4-0.2,0.6-0.2c1,0,1.5,1.1,1.5,1.6c0,0.2-0.9,2-1.1,2.4c-4,7.3-6.8,13.8-6.8,18.2
		c0,1.4,0.3,4,3.1,4c0.9,0,3.6-0.6,6.1-4.7c3-5,4-10.3,4-11.6c0-1.2-0.2-1.9-0.9-4c-0.3-0.9-0.9-2.9-0.9-3.7c0-1.1,0.9-2.2,2.1-2.2
		c2.4,0,2.8,3.6,2.8,6c0,6.3-3,13.2-4.5,15.7c-1.4,2.5-4.8,7.6-10.5,7.6c-2.9,0-6.3-1.7-6.3-6.3c0-4.2,2.8-9.5,8.3-17.1
		c-0.3,0.1-0.7,0.1-1,0.1c-0.8,0-1.1-0.1-3.3-1.4c-0.4-0.2-0.9-0.4-1.3-0.4c-1.2,0-1.4,1.4-1.6,2.4L161.9,32z"/>
	<path d="M204.4,46c-1.8,3.3-5.1,9.2-10.6,9.2c-3.7,0-6.4-2.9-6.4-8.1c0-9.9,8.7-21.5,15.6-21.5c1.9,0,4.3,1.2,4.3,4.2
		c0,2.7-1.9,5.1-3.3,6.5c-3.2,3.4-7.9,5.6-11.2,7.3c-0.3,1.4-0.6,2.9-0.6,4.3c0,2,0.6,4.5,2.9,4.5c1.4,0,2.5-0.9,2.9-1.3
		c2.2-1.9,3.5-4.5,4.3-6L204.4,46z M201,35.5c1.9-2,2.9-3.9,2.9-5.3c0-1-0.6-2-1.9-2c-0.9,0-1.9,0.4-3.5,2.4
		c-2.5,3.4-4.2,7.8-5,10.2C196.5,39.3,199.2,37.4,201,35.5z"/>
	<path d="M209.4,34.6c1.5-4.2,3.4-9.1,7.1-9.1c3.3,0,3.3,4.1,3.3,5.1c0,0.2,0,1.7-0.2,3c-0.1,0.7-0.2,1.4-0.3,2.1
		c0.7-1.7,1.5-3.3,2.5-5.1c1.2-2.2,3.2-5.1,5.8-5.1c1.1,0,2.7,0.9,2.7,3.5c0,2.3-1.4,3.2-2.1,3.2c-0.2,0-0.4-0.1-0.6-0.2
		c-0.2-0.2-0.3-0.2-1-1.2c-0.2-0.3-0.6-0.9-1.2-0.9c-0.4,0-0.8,0.2-1.4,1.1c-3.2,4.5-6.6,16.4-8.6,23.2h-4.9
		c0.5-2.1,1.1-4.2,1.7-6.3c0.7-2.8,1.5-5.6,2.3-8.4c0.2-0.8,2.2-8.2,2.2-10.1c0-1.2-0.9-1.3-1-1.3c-1.5,0-3.2,4.5-3.9,6.3
		L209.4,34.6z"/>
	<path d="M242,17.6h5.1l-2.9,9.2h4.5l-0.6,2.2h-4.6l-5.9,18.6c-0.6,1.8-0.7,2.4-0.7,3c0,1.3,1.1,1.3,1.2,1.3c0.9,0,1.7-0.8,2-1.1
		c1.9-1.8,3-4.1,4.2-6.4l2,0.9c-1.6,3.3-4.8,9.7-10.1,9.7c-2.7,0-4.3-2-4.3-4.3c0-1.7,1.6-6.5,2-7.9l4.5-14H234l0.7-2.2h4.5
		L242,17.6z"/>
	<path d="M257,47.8c-0.6,1.9-0.7,2.3-0.7,2.8c0,0.2,0,1.2,0.9,1.2c0.6,0,1.2-0.6,1.7-1.1c1.4-1.5,1.9-2.5,2.9-4.4l2,1
		c-3.4,6.4-6.1,7.8-8.7,7.8c-3,0-4.2-2-4.2-3.3c0-1.2,0.6-2.8,1-4.3l5-14.7c0.6-2.1,0.7-2.4,0.7-2.8c0-0.6-0.2-0.9-0.8-0.9
		c-0.4,0-0.7,0.1-1.5,1.1c-0.9,1.1-1.7,2.7-2.5,4.4l-2.1-0.6c1.5-3.2,3.8-8.2,8.4-8.2c2.8,0,3.7,2.1,3.7,3.5c0,0.9-0.2,1.7-0.4,2.5
		L257,47.8z M260.1,16.1c0-1.7,1.4-3.2,3.2-3.2s3.2,1.5,3.2,3.2c0,1.8-1.5,3.2-3.2,3.2S260.1,17.9,260.1,16.1z"/>
	<path d="M288.1,9.8c1.9,0.1,6.3,0.1,9.8-1.1l0.8,0.4l-12.5,40.2c-0.1,0.5-0.4,1.5-0.4,2v0.3c0.1,0.8,0.6,0.9,0.9,0.9
		c0.6,0,1-0.2,1.3-0.4c1.9-1.2,3.2-3.4,4.4-5.3l1.9,0.9c-1.1,2-4.2,7.6-8.8,7.6c-1.1,0-2.1-0.3-2.9-1.1c-1.3-1.2-1.3-2.4-1.3-3.6
		c-0.9,1-1.8,2-2.8,2.7c-0.8,0.6-3,2-5.3,2c-4.8,0-6.4-4.6-6.4-7.6c0-6.1,4.3-14.1,9.3-18.4c3.6-3,6-3.7,8-3.7c2.2,0,3,0.8,3.7,1.4
		l3.8-12.5c0-0.2,0.2-0.9,0.2-1.3c0-0.3-0.2-0.6-0.4-0.8c-0.6-0.5-3.3-0.5-4.1-0.5L288.1,9.8z M286.8,30c0.1-0.2,0.1-0.4,0.1-0.6
		c0-0.7-0.7-1.6-2.2-1.6c-1.7,0-3.7,1.4-5.6,3.6c-3.4,4-7.3,13-7.3,17.5c0,3.1,2.1,3.5,2.8,3.5c1.8,0,4.8-2,7.4-7.8
		c0.6-1.5,1.2-3,1.7-4.6L286.8,30z"/>
	<path d="M323.5,47.6c-2,3.2-4.9,7.4-8.9,7.4c-3.8,0-3.7-3.8-3.7-5c-1,1.2-4.1,5.1-8.3,5.1c-5,0-6-5.1-6-7.7
		c0-6.6,5.3-15.3,10.4-19.2c2.2-1.7,4.3-2.7,6.9-2.7c2.2,0,2.9,0.6,4,1.5L318,26h5.1l-7.6,23.8c-0.1,0.5-0.2,0.9-0.2,1.3
		c0,0.8,0.7,1,0.9,1c1.7,0,4.1-3.6,5.4-5.7L323.5,47.6z M316.1,32.3c0.4-1.1,0.6-1.8,0.6-2.4c0-0.9-0.7-2.2-2.5-2.2
		c-3.7,0-7.4,6.3-9.5,10.7c-1.1,2.3-3.1,6.6-3.1,10.7c0,0.6,0,3.2,2.5,3.2c1.5,0,2.6-0.7,4.1-2.4c2.5-2.7,3.9-6.3,5-9.2L316.1,32.3z
		"/>
	<path d="M338.7,25.6c3.4,0,6.1,1.9,6.1,4.2c0,1.6-1.1,2.5-2.4,2.5c-0.1,0-1.3,0-1.7-1.4c-0.2-0.6-0.2-1.1-0.4-1.6
		c-0.6-1.3-1.8-1.3-2.2-1.3c-2.2,0-3.5,1.6-3.5,3c0,1.4,0.7,2.9,1.3,3.8c0.4,0.8,0.8,1.5,1.2,2.4c2.4,4.6,3.5,6.7,3.5,9.4
		c0,3.7-2.8,8.6-9.4,8.6c-5.1,0-7.1-3.8-7.1-5.7c0-1,0.6-2.5,2.2-2.5c0.6,0,1.2,0.4,1.6,0.8c0.7,0.7,0.9,1.9,0.9,3
		c0,0.8,0.1,1.2,0.2,1.5c0.2,0.3,1.2,0.7,2.5,0.7c1.8,0,4.5-1.1,4.5-3.8c0-0.6-0.1-1.2-0.3-1.7c-0.3-0.9-0.6-1.4-3.6-7.3
		c-1.3-2.5-2.2-4.4-2.2-6.6C330.1,27.8,335.1,25.6,338.7,25.6z"/>
</g>
</svg>
