<?xml version="1.0" encoding="utf-8"?>
<!-- Generator: Adobe Illustrator 21.0.0, SVG Export Plug-In . SVG Version: 6.00 Build 0)  -->
<svg version="1.1" id="Capa_1" xmlns="http://www.w3.org/2000/svg" xmlns:xlink="http://www.w3.org/1999/xlink" x="0px" y="0px"
	 viewBox="0 0 481 174" style="enable-background:new 0 0 481 174;" xml:space="preserve">
<style type="text/css">
	.st0{fill:#7C1F1F;}
</style>
<g>
	<path class="st0" d="M30.5,63h24.4v10.4H18.9V12h11.6V63z"/>
	<path class="st0" d="M60.5,42.8c0.2-2.2,0.3-4,1.7-6.5c4.2-7.6,14.5-7.6,17.3-7.6c4.2,0,9.2,0.5,13.1,2.8c5.1,3.1,5.2,7.2,5.2,11.9
		v23.1c0,3.3,0,4.4,1.9,7H87.4c-0.1-1-0.3-2.8-0.3-3.4c-2.3,1.9-6.9,4.4-12.9,4.4c-9.8,0-15.7-6.1-15.7-13.6c0-2.2,0.5-4.2,1.4-5.9
		c3.1-6.3,9.8-7.7,14-8.4c9-1.8,9.7-2,13.5-3.2c0-2.2-0.2-6.6-7.4-6.6c-4.4,0-6.7,1.4-7.7,2.8c-1.1,1.4-1,2.6-1,3.8L60.5,42.8z
		 M87.4,51.8c-2.1,1-4.4,1.8-9.1,2.6c-3.7,0.5-8.7,1.4-8.7,6c0,3.4,2.9,5.1,7,5.1c5.3,0,9-2.4,10.2-5c0.6-1.3,0.6-2.6,0.6-3.9V51.8z
		"/>
	<path class="st0" d="M112.2,60.6c2.6,3.2,6.5,5.6,12.5,5.6s8.6-3,8.6-5.1c0-2.8-3.1-3.5-4.5-3.7c-1.5-0.3-8.6-1.7-10.2-2.1
		c-10.4-2.4-12.3-8.4-12.3-12.4c0-7.4,6.7-14.2,18.6-14.2c6.6,0,11.4,2.1,14.4,4.2c2.2,1.4,3.6,2.9,4.4,3.9l-7.4,6.9
		c-1.2-2.3-4.2-6.6-11.8-6.6c-5,0-7.2,2.2-7.2,4.4c0,3.1,3.2,4,8.8,5c9,1.7,11.6,2.1,14.4,4.3c2.7,2.1,4.4,5.6,4.4,9.2
		c0,6.8-6.1,14.9-19.6,14.9c-7.7,0-15.4-2.4-20.9-7.7L112.2,60.6z"/>
	<path class="st0" d="M179.4,60.6c2.6,3.2,6.5,5.6,12.5,5.6s8.6-3,8.6-5.1c0-2.8-3.1-3.5-4.5-3.7c-1.5-0.3-8.6-1.7-10.2-2.1
		c-10.4-2.4-12.3-8.4-12.3-12.4c0-7.4,6.7-14.2,18.6-14.2c6.6,0,11.4,2.1,14.4,4.2c2.2,1.4,3.6,2.9,4.4,3.9l-7.4,6.9
		c-1.2-2.3-4.2-6.6-11.8-6.6c-5,0-7.2,2.2-7.2,4.4c0,3.1,3.2,4,8.8,5c9,1.7,11.6,2.1,14.4,4.3c2.7,2.1,4.4,5.6,4.4,9.2
		c0,6.8-6.1,14.9-19.6,14.9c-7.7,0-15.4-2.4-20.9-7.7L179.4,60.6z"/>
	<path class="st0" d="M259.1,30v43.5h-10.4V69c-1.8,1.7-6.1,5.5-14.1,5.5c-7.1,0-10.5-3-12.1-5c-3-3.7-3-7.8-3-14.4V30h10.5v25
		c0,1.7,0,3.2,0.3,4.4c1.1,3.8,4.3,5.5,8.1,5.5c4.4,0,7-2.3,8.4-4.6c1.6-2.9,1.7-5.7,1.7-11.7V30H259.1z"/>
	<path class="st0" d="M279.9,12v21.6c3.5-3.2,7.8-5,12.6-5c9.8,0,19.1,9,19.1,22.9c0,14.2-9.4,23.2-19.8,23.2
		c-5.7,0-9.7-3.2-11.9-5.8v4.5h-10.4V12H279.9z M290,38.1c-4.7,0-10.3,3.6-10.3,12.9c0,2.7,0.3,4.5,0.7,5.6c2.1,8.3,9.1,8.3,10,8.3
		c7.7,0,10.2-7.7,10.4-13.5C301.1,42.8,295.7,38.1,290,38.1z"/>
	<path class="st0" d="M329.9,12.6v10.5h-10.4V12.6H329.9z M329.9,30v43.5h-10.4V30H329.9z"/>
	<path class="st0" d="M379.6,12v61.4h-10.4v-4.2c-3.2,3.9-7.6,5.5-12.1,5.5c-10.4,0-19.3-7.7-19.3-22.1c0-13,7.3-24,19.8-24
		c4.3,0,8.4,1.2,11.7,4.9V12H379.6z M366.8,42.3c-1.6-2.3-4.2-4-7.7-4c-7,0-10.4,6.4-10.4,13.2c0,0.8,0.1,13.8,10.3,13.8
		c5.4,0,10.3-4,10.2-13.4C369.1,49.2,368.8,45.2,366.8,42.3z"/>
	<path class="st0" d="M388.8,42.8c0.2-2.2,0.3-4,1.7-6.5c4.2-7.6,14.5-7.6,17.3-7.6c4.2,0,9.2,0.5,13.1,2.8
		c5.1,3.1,5.2,7.2,5.2,11.9v23.1c0,3.3,0,4.4,1.9,7h-12.4c-0.1-1-0.3-2.8-0.3-3.4c-2.3,1.9-6.9,4.4-12.9,4.4
		c-9.8,0-15.7-6.1-15.7-13.6c0-2.2,0.5-4.2,1.4-5.9c3.1-6.3,9.8-7.7,14-8.4c9-1.8,9.7-2,13.5-3.2c0-2.2-0.2-6.6-7.4-6.6
		c-4.4,0-6.7,1.4-7.7,2.8c-1.1,1.4-1,2.6-1,3.8L388.8,42.8z M415.7,51.8c-2.1,1-4.4,1.8-9.1,2.6c-3.7,0.5-8.7,1.4-8.7,6
		c0,3.4,2.9,5.1,7,5.1c5.3,0,9-2.4,10.2-5c0.6-1.3,0.6-2.6,0.6-3.9V51.8z"/>
	<path class="st0" d="M440.5,60.6c2.6,3.2,6.5,5.6,12.5,5.6c6,0,8.6-3,8.6-5.1c0-2.8-3.1-3.5-4.5-3.7c-1.5-0.3-8.6-1.7-10.2-2.1
		c-10.4-2.4-12.3-8.4-12.3-12.4c0-7.4,6.7-14.2,18.6-14.2c6.6,0,11.4,2.1,14.4,4.2c2.2,1.4,3.6,2.9,4.4,3.9l-7.4,6.9
		c-1.2-2.3-4.2-6.6-11.8-6.6c-5,0-7.2,2.2-7.2,4.4c0,3.1,3.2,4,8.8,5c9,1.7,11.6,2.1,14.4,4.3c2.7,2.1,4.4,5.6,4.4,9.2
		c0,6.8-6.1,14.9-19.6,14.9c-7.7,0-15.4-2.4-20.9-7.7L440.5,60.6z"/>
	<path class="st0" d="M52.7,107l-11,37.9l-2.4,8.2c-3,9.1-6.2,12.4-14.3,12.4c-3.4,0-5-0.3-6.3-0.5v-9.1c1,0.2,1.7,0.3,2.8,0.3
		c0.8,0,3,0,4.7-1.1c1.2-0.8,2.4-2.7,2.4-3.6L12.8,107h11.2l9.7,32.5L42,107H52.7z"/>
	<path class="st0" d="M91.2,89v21.6c3.5-3.2,7.8-5,12.6-5c9.8,0,19.1,9,19.1,22.9c0,14.2-9.4,23.2-19.8,23.2
		c-5.7,0-9.7-3.2-11.9-5.8v4.5H80.9V89H91.2z M101.3,115.1c-4.7,0-10.3,3.6-10.3,12.9c0,2.7,0.3,4.5,0.7,5.6c2.1,8.3,9.1,8.3,10,8.3
		c7.7,0,10.2-7.7,10.4-13.5C112.4,119.8,107,115.1,101.3,115.1z"/>
	<path class="st0" d="M129.4,119.8c0.2-2.2,0.3-4,1.7-6.5c4.2-7.6,14.5-7.6,17.3-7.6c4.2,0,9.2,0.5,13.1,2.8
		c5.1,3.1,5.2,7.2,5.2,11.9v23.1c0,3.3,0,4.4,1.9,7h-12.4c-0.1-1-0.3-2.8-0.3-3.4c-2.3,1.9-6.9,4.4-12.9,4.4
		c-9.8,0-15.7-6.1-15.7-13.6c0-2.2,0.5-4.2,1.4-5.9c3.1-6.3,9.8-7.7,14-8.4c9-1.8,9.7-2,13.5-3.2c0-2.2-0.2-6.6-7.4-6.6
		c-4.4,0-6.7,1.4-7.7,2.8c-1.1,1.4-1,2.6-1,3.8L129.4,119.8z M156.3,128.8c-2.1,1-4.4,1.8-9.1,2.6c-3.7,0.5-8.7,1.4-8.7,6
		c0,3.4,2.9,5.1,7,5.1c5.3,0,9-2.4,10.2-5c0.6-1.3,0.6-2.6,0.6-3.9V128.8z"/>
	<path class="st0" d="M187.6,106.9v43.9c0,4.2-0.2,6.4-0.5,7.3c-1.7,5-7.7,6.4-13.2,6.4c-0.8,0-1,0-2.3-0.1v-9.6
		c1,0,3.7-0.3,4.8-1.7c1-1.1,1-1.5,1-6.6v-39.8H187.6z M187.5,89.6v10.5h-10.3V89.6H187.5z"/>
	<path class="st0" d="M196.6,119.8c0.2-2.2,0.3-4,1.7-6.5c4.2-7.6,14.5-7.6,17.3-7.6c4.2,0,9.2,0.5,13.1,2.8
		c5.1,3.1,5.2,7.2,5.2,11.9v23.1c0,3.3,0,4.4,1.9,7h-12.4c-0.1-1-0.3-2.8-0.3-3.4c-2.3,1.9-6.9,4.4-12.9,4.4
		c-9.8,0-15.7-6.1-15.7-13.6c0-2.2,0.5-4.2,1.4-5.9c3.1-6.3,9.8-7.7,14-8.4c9-1.8,9.7-2,13.5-3.2c0-2.2-0.2-6.6-7.4-6.6
		c-4.4,0-6.7,1.4-7.7,2.8c-1.1,1.4-1,2.6-1,3.8L196.6,119.8z M223.5,128.8c-2.1,1-4.4,1.8-9.1,2.6c-3.7,0.5-8.7,1.4-8.7,6
		c0,3.4,2.9,5.1,7,5.1c5.3,0,9-2.4,10.2-5c0.6-1.3,0.6-2.6,0.6-3.9V128.8z"/>
	<path class="st0" d="M283.5,89v61.4h-10.4v-4.2c-3.2,3.9-7.6,5.5-12.1,5.5c-10.4,0-19.3-7.7-19.3-22.1c0-13,7.3-24,19.8-24
		c4.3,0,8.4,1.2,11.7,4.9V89H283.5z M270.7,119.3c-1.6-2.3-4.2-4-7.7-4c-7,0-10.4,6.4-10.4,13.2c0,0.8,0.1,13.8,10.3,13.8
		c5.4,0,10.3-4,10.2-13.4C273,126.2,272.6,122.2,270.7,119.3z"/>
	<path class="st0" d="M292.7,119.8c0.2-2.2,0.3-4,1.7-6.5c4.2-7.6,14.5-7.6,17.3-7.6c4.2,0,9.2,0.5,13.1,2.8
		c5.1,3.1,5.2,7.2,5.2,11.9v23.1c0,3.3,0,4.4,1.9,7h-12.4c-0.1-1-0.3-2.8-0.3-3.4c-2.3,1.9-6.9,4.4-12.9,4.4
		c-9.8,0-15.7-6.1-15.7-13.6c0-2.2,0.5-4.2,1.4-5.9c3.1-6.3,9.8-7.7,14-8.4c9-1.8,9.7-2,13.5-3.2c0-2.2-0.2-6.6-7.4-6.6
		c-4.4,0-6.7,1.4-7.7,2.8c-1.1,1.4-1,2.6-1,3.8L292.7,119.8z M319.6,128.8c-2.1,1-4.4,1.8-9.1,2.6c-3.7,0.5-8.7,1.4-8.7,6
		c0,3.4,2.9,5.1,7,5.1c5.3,0,9-2.4,10.2-5c0.6-1.3,0.6-2.6,0.6-3.9V128.8z"/>
	<path class="st0" d="M344.4,137.6c2.6,3.2,6.5,5.6,12.5,5.6c6,0,8.6-3,8.6-5.1c0-2.8-3.1-3.5-4.5-3.7c-1.5-0.3-8.6-1.7-10.2-2.1
		c-10.4-2.4-12.3-8.4-12.3-12.4c0-7.4,6.7-14.2,18.6-14.2c6.6,0,11.4,2.1,14.4,4.2c2.2,1.4,3.6,2.9,4.4,3.9l-7.4,6.9
		c-1.2-2.3-4.2-6.6-11.8-6.6c-5,0-7.2,2.2-7.2,4.4c0,3.1,3.2,4,8.8,5c9,1.7,11.6,2.1,14.4,4.3c2.7,2.1,4.4,5.6,4.4,9.2
		c0,6.8-6.1,14.9-19.6,14.9c-7.7,0-15.4-2.4-20.9-7.7L344.4,137.6z"/>
</g>
</svg>
